<?xml version="1.0" encoding="UTF-8" standalone="no"?>
<!DOCTYPE svg PUBLIC "-//W3C//DTD SVG 1.1//EN"
 "http://www.w3.org/Graphics/SVG/1.1/DTD/svg11.dtd">
<!-- Generated by graphviz version 2.38.0 (20140413.2041)
 -->
<!-- Title: onebootstrap Pages: 1 -->
<svg width="624pt" height="858pt"
     viewBox="0.00 0.00 624.15 858.00" xmlns="http://www.w3.org/2000/svg">
<g id="graph0" class="graph" transform="scale(1 1) rotate(0) translate(4 854)">
<title>onebootstrap</title>
<polygon fill="white" stroke="none" points="-4,4 -4,-854 620.155,-854 620.155,4 -4,4"/>
<!-- ownerEmailAddress -->
<g id="node1" class="node"><title>ownerEmailAddress</title>
<text text-anchor="middle" x="129.887" y="-827.8" font-family="Times,serif" font-size="14.00">ownerEmailAddress</text>
</g>
<!-- instanceId -->
<g id="node2" class="node"><title>instanceId</title>
<text text-anchor="middle" x="194.887" y="-754.8" font-family="Times,serif" font-size="14.00">instanceId</text>
</g>
<!-- ownerEmailAddress&#45;&gt;instanceId -->
<g id="edge1" class="edge"><title>ownerEmailAddress&#45;&gt;instanceId</title>
<path fill="none" stroke="black" d="M145.622,-813.813C153.686,-805.005 163.646,-794.125 172.496,-784.458"/>
<polygon fill="black" stroke="black" points="175.126,-786.768 179.297,-777.029 169.963,-782.041 175.126,-786.768"/>
</g>
<!-- is there a previous instanceContext? -->
<g id="node4" class="node"><title>is there a previous instanceContext?</title>
<polygon fill="none" stroke="black" points="194.887,-704 0.112885,-686 194.887,-668 389.661,-686 194.887,-704"/>
<text text-anchor="middle" x="194.887" y="-681.8" font-family="Times,serif" font-size="14.00">is there a previous instanceContext?</text>
</g>
<!-- instanceId&#45;&gt;is there a previous instanceContext? -->
<g id="edge3" class="edge"><title>instanceId&#45;&gt;is there a previous instanceContext?</title>
<path fill="none" stroke="black" d="M194.887,-740.813C194.887,-732.789 194.887,-723.047 194.887,-714.069"/>
<polygon fill="black" stroke="black" points="198.387,-714.029 194.887,-704.029 191.387,-714.029 198.387,-714.029"/>
</g>
<!-- instanceName -->
<g id="node3" class="node"><title>instanceName</title>
<text text-anchor="middle" x="260.887" y="-827.8" font-family="Times,serif" font-size="14.00">instanceName</text>
</g>
<!-- instanceName&#45;&gt;instanceId -->
<g id="edge2" class="edge"><title>instanceName&#45;&gt;instanceId</title>
<path fill="none" stroke="black" d="M244.91,-813.813C236.722,-805.005 226.609,-794.125 217.623,-784.458"/>
<polygon fill="black" stroke="black" points="220.089,-781.97 210.717,-777.029 214.962,-786.736 220.089,-781.97"/>
</g>
<!-- create plan for instanceContext -->
<g id="node5" class="node"><title>create plan for instanceContext</title>
<polygon fill="none" stroke="black" points="615.923,-704 425.851,-704 425.851,-668 615.923,-668 615.923,-704"/>
<text text-anchor="middle" x="520.887" y="-681.8" font-family="Times,serif" font-size="14.00">create plan for instanceContext</text>
</g>
<!-- is there a previous instanceContext?&#45;&gt;create plan for instanceContext -->
<g id="edge5" class="edge"><title>is there a previous instanceContext?&#45;&gt;create plan for instanceContext</title>
<path fill="none" stroke="black" d="M389.7,-686C398.497,-686 407.165,-686 415.598,-686"/>
<polygon fill="black" stroke="black" points="415.758,-689.5 425.758,-686 415.758,-682.5 415.758,-689.5"/>
<text text-anchor="middle" x="407.697" y="-691.8" font-family="Times,serif" font-size="14.00">no</text>
</g>
<!-- instanceContext -->
<g id="node6" class="node"><title>instanceContext</title>
<polygon fill="red" stroke="none" points="100.887,-531 100.887,-553 289.887,-553 289.887,-531 100.887,-531"/>
<text text-anchor="start" x="150.287" y="-537.8" font-family="Times,serif" font-size="14.00" fill="white">instanceContext</text>
<text text-anchor="start" x="155.732" y="-515.8" font-family="Times,serif" font-size="14.00">id : instanceId</text>
<text text-anchor="start" x="115.68" y="-493.8" font-family="Times,serif" font-size="14.00">storyIndex : storyIndexHash</text>
<text text-anchor="start" x="106.356" y="-471.8" font-family="Times,serif" font-size="14.00">personIndex : personIndexHash</text>
<text text-anchor="start" x="104.411" y="-449.8" font-family="Times,serif" font-size="14.00">mailIndexHash : mailIndexHash</text>
<text text-anchor="start" x="109.473" y="-427.8" font-family="Times,serif" font-size="14.00">imageIndex : imageIndexHash</text>
<polygon fill="none" stroke="red" points="99.387,-420 99.387,-554 290.387,-554 290.387,-420 99.387,-420"/>
</g>
<!-- is there a previous instanceContext?&#45;&gt;instanceContext -->
<g id="edge4" class="edge"><title>is there a previous instanceContext?&#45;&gt;instanceContext</title>
<path fill="none" stroke="black" d="M194.887,-667.862C194.887,-645.615 194.887,-605.268 194.887,-568.418"/>
<polygon fill="black" stroke="black" points="198.387,-568.135 194.887,-558.135 191.387,-568.135 198.387,-568.135"/>
<text text-anchor="middle" x="204.218" y="-608.8" font-family="Times,serif" font-size="14.00">yes</text>
</g>
<!-- create newInstanceContext -->
<g id="node7" class="node"><title>create newInstanceContext</title>
<polygon fill="none" stroke="black" points="604.591,-631 437.183,-631 437.183,-595 604.591,-595 604.591,-631"/>
<text text-anchor="middle" x="520.887" y="-608.8" font-family="Times,serif" font-size="14.00">create newInstanceContext</text>
</g>
<!-- create plan for instanceContext&#45;&gt;create newInstanceContext -->
<g id="edge6" class="edge"><title>create plan for instanceContext&#45;&gt;create newInstanceContext</title>
<path fill="none" stroke="black" d="M520.887,-667.813C520.887,-659.789 520.887,-650.047 520.887,-641.069"/>
<polygon fill="black" stroke="black" points="524.387,-641.029 520.887,-631.029 517.387,-641.029 524.387,-641.029"/>
</g>
<!-- instanceStoryIndex -->
<g id="node8" class="node"><title>instanceStoryIndex</title>
<polygon fill="red" stroke="none" points="129.887,-352 129.887,-374 262.887,-374 262.887,-352 129.887,-352"/>
<text text-anchor="start" x="142.346" y="-358.8" font-family="Times,serif" font-size="14.00" fill="white">instanceStoryIndex</text>
<text text-anchor="start" x="145.846" y="-336.8" font-family="Times,serif" font-size="14.00">from : objectHash</text>
<text text-anchor="start" x="170.328" y="-314.8" font-family="Times,serif" font-size="14.00">to : Story</text>
<text text-anchor="start" x="133.811" y="-292.8" font-family="Times,serif" font-size="14.00">IndexItem : Reference</text>
<polygon fill="none" stroke="red" points="128.387,-285 128.387,-375 263.387,-375 263.387,-285 128.387,-285"/>
</g>
<!-- instanceContext&#45;&gt;instanceStoryIndex -->
<g id="edge8" class="edge"><title>instanceContext:storyIndexHash&#45;&gt;instanceStoryIndex</title>
<path fill="none" stroke="black" d="M290.887,-498C327.334,-498 304.879,-449.221 289.887,-416 285.079,-405.346 278.219,-395.453 270.365,-386.465"/>
<polygon fill="black" stroke="black" points="272.925,-384.079 263.557,-379.13 267.794,-388.841 272.925,-384.079"/>
</g>
<!-- create newInstanceContext&#45;&gt;instanceContext -->
<g id="edge7" class="edge"><title>create newInstanceContext&#45;&gt;instanceContext</title>
<path fill="none" stroke="black" d="M475.9,-594.889C432.716,-578.463 365.712,-552.976 307.962,-531.01"/>
<polygon fill="black" stroke="black" points="309,-527.66 298.409,-527.376 306.511,-534.203 309,-527.66"/>
</g>
<!-- mostRecentInstanceHash -->
<g id="node9" class="node"><title>mostRecentInstanceHash</title>
<text text-anchor="middle" x="195.887" y="-221.8" font-family="Times,serif" font-size="14.00">mostRecentInstanceHash</text>
</g>
<!-- instanceStoryIndex&#45;&gt;mostRecentInstanceHash -->
<g id="edge9" class="edge"><title>instanceStoryIndex&#45;&gt;mostRecentInstanceHash</title>
<path fill="none" stroke="black" d="M195.887,-280.987C195.887,-271.789 195.887,-262.462 195.887,-254.206"/>
<polygon fill="black" stroke="black" points="199.387,-254.072 195.887,-244.073 192.387,-254.073 199.387,-254.072"/>
</g>
<!-- instance -->
<g id="node10" class="node"><title>instance</title>
<polygon fill="black" stroke="none" points="130.887,-144 130.887,-166 261.887,-166 261.887,-144 130.887,-144"/>
<text text-anchor="start" x="173.452" y="-150.8" font-family="Times,serif" font-size="14.00" fill="white">instance</text>
<text text-anchor="start" x="159.839" y="-128.8" font-family="Times,serif" font-size="14.00">name : string</text>
<text text-anchor="start" x="140.401" y="-106.8" font-family="Times,serif" font-size="14.00">owner : personHash</text>
<text text-anchor="start" x="134.563" y="-84.8" font-family="Times,serif" font-size="14.00">module : moduleHash</text>
<polygon fill="none" stroke="black" points="129.387,-77 129.387,-167 262.387,-167 262.387,-77 129.387,-77"/>
</g>
<!-- mostRecentInstanceHash&#45;&gt;instance -->
<g id="edge10" class="edge"><title>mostRecentInstanceHash&#45;&gt;instance</title>
<path fill="none" stroke="black" d="M195.887,-207.697C195.887,-200.188 195.887,-190.915 195.887,-181.289"/>
<polygon fill="black" stroke="black" points="199.387,-181.188 195.887,-171.188 192.387,-181.188 199.387,-181.188"/>
</g>
<!-- stuff to load ... -->
<g id="node11" class="node"><title>stuff to load ...</title>
<text text-anchor="middle" x="196.887" y="-13.8" font-family="Times,serif" font-size="14.00">stuff to load ...</text>
</g>
<!-- instance&#45;&gt;stuff to load ... -->
<g id="edge11" class="edge"><title>instance:module&#45;&gt;stuff to load ...</title>
<path fill="none" stroke="black" d="M196.887,-77C196.887,-66.977 196.887,-55.9796 196.887,-46.281"/>
<polygon fill="black" stroke="black" points="200.387,-46.0039 196.887,-36.0039 193.387,-46.0039 200.387,-46.0039"/>
</g>
</g>
</svg>
