<?xml version="1.0" encoding="UTF-8" standalone="no"?>
<!DOCTYPE svg PUBLIC "-//W3C//DTD SVG 1.1//EN"
 "http://www.w3.org/Graphics/SVG/1.1/DTD/svg11.dtd">
<!-- Generated by graphviz version 2.38.0 (20140413.2041)
 -->
<!-- Title: one Pages: 1 -->
<svg width="481pt" height="692pt"
     viewBox="0.00 0.00 480.58 692.00" xmlns="http://www.w3.org/2000/svg">
<g id="graph0" class="graph" transform="scale(1 1) rotate(0) translate(4 688)">
<title>one</title>
<polygon fill="white" stroke="none" points="-4,4 -4,-688 476.58,-688 476.58,4 -4,4"/>
<!-- someEmailObject -->
<g id="node1" class="node"><title>someEmailObject</title>
<ellipse fill="none" stroke="black" cx="268.612" cy="-666" rx="73.4326" ry="18"/>
<text text-anchor="middle" x="268.612" y="-661.8" font-family="Times,serif" font-size="14.00">someEmailObject</text>
</g>
<!-- createPersonList -->
<g id="node2" class="node"><title>createPersonList</title>
<polygon fill="none" stroke="black" points="407.982,-612 129.241,-612 129.241,-576 407.982,-576 407.982,-612"/>
<text text-anchor="middle" x="268.612" y="-589.8" font-family="Times,serif" font-size="14.00">create list of Person objects in TO, FROM, CC</text>
</g>
<!-- someEmailObject&#45;&gt;createPersonList -->
<g id="edge1" class="edge"><title>someEmailObject&#45;&gt;createPersonList</title>
<path fill="none" stroke="black" d="M268.612,-647.697C268.612,-639.983 268.612,-630.712 268.612,-622.112"/>
<polygon fill="black" stroke="black" points="272.112,-622.104 268.612,-612.104 265.112,-622.104 272.112,-622.104"/>
</g>
<!-- personList -->
<g id="node4" class="node"><title>personList</title>
<polygon fill="black" stroke="black" points="338.227,-540 227.485,-540 198.996,-504 309.739,-504 338.227,-540"/>
<text text-anchor="middle" x="268.612" y="-517.8" font-family="Times,serif" font-size="14.00" fill="white">personList</text>
</g>
<!-- createPersonList&#45;&gt;personList -->
<g id="edge2" class="edge"><title>createPersonList&#45;&gt;personList</title>
<path fill="none" stroke="black" d="M268.612,-575.697C268.612,-567.983 268.612,-558.712 268.612,-550.112"/>
<polygon fill="black" stroke="black" points="272.112,-550.104 268.612,-540.104 265.112,-550.104 272.112,-550.104"/>
</g>
<!-- forEach -->
<g id="node3" class="node"><title>forEach</title>
<polygon fill="none" stroke="black" points="461.32,-468 75.9037,-468 75.9037,-432 461.32,-432 461.32,-468"/>
<text text-anchor="middle" x="268.612" y="-445.8" font-family="Times,serif" font-size="14.00">for each Person object in personList and in (Instance) userIdIndex</text>
</g>
<!-- create Grant object with accessIsGrantedTo Person object -->
<g id="node5" class="node"><title>create Grant object with accessIsGrantedTo Person object</title>
<polygon fill="none" stroke="black" points="339.336,-396 -0.11189,-396 -0.11189,-360 339.336,-360 339.336,-396"/>
<text text-anchor="middle" x="169.612" y="-373.8" font-family="Times,serif" font-size="14.00">create Grant object with accessIsGrantedTo Person object</text>
</g>
<!-- forEach&#45;&gt;create Grant object with accessIsGrantedTo Person object -->
<g id="edge4" class="edge"><title>forEach&#45;&gt;create Grant object with accessIsGrantedTo Person object</title>
<path fill="none" stroke="black" d="M244.394,-431.876C231.689,-422.893 215.947,-411.763 202.189,-402.034"/>
<polygon fill="black" stroke="black" points="204.109,-399.105 193.923,-396.19 200.067,-404.821 204.109,-399.105"/>
</g>
<!-- personList&#45;&gt;forEach -->
<g id="edge3" class="edge"><title>personList&#45;&gt;forEach</title>
<path fill="none" stroke="black" d="M268.612,-503.697C268.612,-495.983 268.612,-486.712 268.612,-478.112"/>
<polygon fill="black" stroke="black" points="272.112,-478.104 268.612,-468.104 265.112,-478.104 272.112,-478.104"/>
</g>
<!-- grantObject -->
<g id="node6" class="node"><title>grantObject</title>
<polygon fill="blue" stroke="blue" points="255.655,-324 134.687,-324 103.568,-288 224.537,-288 255.655,-324"/>
<text text-anchor="middle" x="179.612" y="-301.8" font-family="Times,serif" font-size="14.00" fill="white">grantObject</text>
</g>
<!-- create Grant object with accessIsGrantedTo Person object&#45;&gt;grantObject -->
<g id="edge5" class="edge"><title>create Grant object with accessIsGrantedTo Person object&#45;&gt;grantObject</title>
<path fill="none" stroke="black" d="M172.084,-359.697C173.186,-351.983 174.51,-342.712 175.739,-334.112"/>
<polygon fill="black" stroke="black" points="179.219,-334.499 177.168,-324.104 172.289,-333.509 179.219,-334.499"/>
</g>
<!-- create Access object with grant grantObject -->
<g id="node7" class="node"><title>create Access object with grant grantObject</title>
<polygon fill="none" stroke="black" points="329.347,-252 69.8763,-252 69.8763,-216 329.347,-216 329.347,-252"/>
<text text-anchor="middle" x="199.612" y="-229.8" font-family="Times,serif" font-size="14.00">create Access object with grant grantObject</text>
</g>
<!-- grantObject&#45;&gt;create Access object with grant grantObject -->
<g id="edge6" class="edge"><title>grantObject&#45;&gt;create Access object with grant grantObject</title>
<path fill="none" stroke="black" d="M184.556,-287.697C186.784,-279.898 189.467,-270.509 191.946,-261.829"/>
<polygon fill="black" stroke="black" points="195.343,-262.681 194.725,-252.104 188.612,-260.758 195.343,-262.681"/>
</g>
<!-- accessObject -->
<g id="node8" class="node"><title>accessObject</title>
<polygon fill="blue" stroke="blue" points="311.096,-180 179.882,-180 146.127,-144 277.342,-144 311.096,-180"/>
<text text-anchor="middle" x="228.612" y="-157.8" font-family="Times,serif" font-size="14.00" fill="white">accessObject</text>
</g>
<!-- create Access object with grant grantObject&#45;&gt;accessObject -->
<g id="edge7" class="edge"><title>create Access object with grant grantObject&#45;&gt;accessObject</title>
<path fill="none" stroke="black" d="M206.78,-215.697C210.046,-207.813 213.986,-198.304 217.614,-189.546"/>
<polygon fill="black" stroke="black" points="220.932,-190.683 221.526,-180.104 214.465,-188.003 220.932,-190.683"/>
</g>
<!-- updateIndex -->
<g id="node9" class="node"><title>updateIndex</title>
<polygon fill="none" stroke="black" points="472.547,-108 122.676,-108 122.676,-72 472.547,-72 472.547,-108"/>
<text text-anchor="middle" x="297.612" y="-85.8" font-family="Times,serif" font-size="14.00">add accessObject to someEmailObject Context accessIndex</text>
</g>
<!-- accessObject&#45;&gt;updateIndex -->
<g id="edge8" class="edge"><title>accessObject&#45;&gt;updateIndex</title>
<path fill="none" stroke="black" d="M245.668,-143.697C254.107,-135.135 264.436,-124.656 273.655,-115.304"/>
<polygon fill="black" stroke="black" points="276.224,-117.683 280.752,-108.104 271.239,-112.769 276.224,-117.683"/>
</g>
<!-- updateIndex&#45;&gt;forEach -->
<g id="edge9" class="edge"><title>updateIndex&#45;&gt;forEach</title>
<path fill="none" stroke="black" d="M312.457,-108.033C333.005,-133.422 367.612,-183.526 367.612,-233 367.612,-307 367.612,-307 367.612,-307 367.612,-347.447 371.383,-362.572 348.612,-396 340.153,-408.418 327.725,-418.664 315.174,-426.728"/>
<polygon fill="black" stroke="black" points="313.262,-423.794 306.513,-431.962 316.882,-429.785 313.262,-423.794"/>
</g>
<!-- accessObjectsForSomeEmailObject -->
<g id="node10" class="node"><title>accessObjectsForSomeEmailObject</title>
<ellipse fill="none" stroke="black" cx="297.612" cy="-18" rx="136.652" ry="18"/>
<text text-anchor="middle" x="297.612" y="-13.8" font-family="Times,serif" font-size="14.00">accessObjectsForSomeEmailObject</text>
</g>
<!-- updateIndex&#45;&gt;accessObjectsForSomeEmailObject -->
<g id="edge10" class="edge"><title>updateIndex&#45;&gt;accessObjectsForSomeEmailObject</title>
<path fill="none" stroke="black" d="M297.612,-71.6966C297.612,-63.9827 297.612,-54.7125 297.612,-46.1124"/>
<polygon fill="black" stroke="black" points="301.112,-46.1043 297.612,-36.1043 294.112,-46.1044 301.112,-46.1043"/>
</g>
</g>
</svg>
