<?xml version="1.0" encoding="UTF-8" standalone="no"?>
<!DOCTYPE svg PUBLIC "-//W3C//DTD SVG 1.1//EN"
 "http://www.w3.org/Graphics/SVG/1.1/DTD/svg11.dtd">
<!-- Generated by graphviz version 2.38.0 (20140413.2041)
 -->
<!-- Title: one Pages: 1 -->
<svg width="627pt" height="692pt"
     viewBox="0.00 0.00 626.89 692.00" xmlns="http://www.w3.org/2000/svg">
<g id="graph0" class="graph" transform="scale(1 1) rotate(0) translate(4 688)">
<title>one</title>
<polygon fill="white" stroke="none" points="-4,4 -4,-688 622.886,-688 622.886,4 -4,4"/>
<!-- someObject -->
<g id="node1" class="node"><title>someObject</title>
<ellipse fill="none" stroke="black" cx="195.735" cy="-666" rx="52.1934" ry="18"/>
<text text-anchor="middle" x="195.735" y="-661.8" font-family="Times,serif" font-size="14.00">someObject</text>
</g>
<!-- calculate objectId from someObject -->
<g id="node2" class="node"><title>calculate objectId from someObject</title>
<polygon fill="none" stroke="black" points="303.926,-612 87.5448,-612 87.5448,-576 303.926,-576 303.926,-612"/>
<text text-anchor="middle" x="195.735" y="-589.8" font-family="Times,serif" font-size="14.00">calculate objectId from someObject</text>
</g>
<!-- someObject&#45;&gt;calculate objectId from someObject -->
<g id="edge1" class="edge"><title>someObject&#45;&gt;calculate objectId from someObject</title>
<path fill="none" stroke="black" d="M195.735,-647.697C195.735,-639.983 195.735,-630.712 195.735,-622.112"/>
<polygon fill="black" stroke="black" points="199.235,-622.104 195.735,-612.104 192.235,-622.104 199.235,-622.104"/>
</g>
<!-- someObjectId -->
<g id="node3" class="node"><title>someObjectId</title>
<polygon fill="black" stroke="black" points="283.337,-540 143.982,-540 108.134,-504 247.488,-504 283.337,-540"/>
<text text-anchor="middle" x="195.735" y="-517.8" font-family="Times,serif" font-size="14.00" fill="white">someObjectId</text>
</g>
<!-- calculate objectId from someObject&#45;&gt;someObjectId -->
<g id="edge2" class="edge"><title>calculate objectId from someObject&#45;&gt;someObjectId</title>
<path fill="none" stroke="black" d="M195.735,-575.697C195.735,-567.983 195.735,-558.712 195.735,-550.112"/>
<polygon fill="black" stroke="black" points="199.235,-550.104 195.735,-540.104 192.235,-550.104 199.235,-550.104"/>
</g>
<!-- look up objectContext for someObjectId -->
<g id="node4" class="node"><title>look up objectContext for someObjectId</title>
<polygon fill="none" stroke="black" points="317.019,-468 74.452,-468 74.452,-432 317.019,-432 317.019,-468"/>
<text text-anchor="middle" x="195.735" y="-445.8" font-family="Times,serif" font-size="14.00">look up objectContext for someObjectId</text>
</g>
<!-- someObjectId&#45;&gt;look up objectContext for someObjectId -->
<g id="edge3" class="edge"><title>someObjectId&#45;&gt;look up objectContext for someObjectId</title>
<path fill="none" stroke="black" d="M195.735,-503.697C195.735,-495.983 195.735,-486.712 195.735,-478.112"/>
<polygon fill="black" stroke="black" points="199.235,-478.104 195.735,-468.104 192.235,-478.104 199.235,-478.104"/>
</g>
<!-- objectContext -->
<g id="node5" class="node"><title>objectContext</title>
<polygon fill="red" stroke="red" points="283.35,-396 143.975,-396 108.121,-360 247.496,-360 283.35,-396"/>
<text text-anchor="middle" x="195.735" y="-373.8" font-family="Times,serif" font-size="14.00" fill="white">objectContext</text>
</g>
<!-- look up objectContext for someObjectId&#45;&gt;objectContext -->
<g id="edge4" class="edge"><title>look up objectContext for someObjectId&#45;&gt;objectContext</title>
<path fill="none" stroke="black" d="M195.735,-431.697C195.735,-423.983 195.735,-414.712 195.735,-406.112"/>
<polygon fill="black" stroke="black" points="199.235,-406.104 195.735,-396.104 192.235,-406.104 199.235,-406.104"/>
</g>
<!-- objectAccessIndex -->
<g id="node6" class="node"><title>objectAccessIndex</title>
<polygon fill="red" stroke="red" points="308.721,-324 128.986,-324 82.7498,-288 262.485,-288 308.721,-324"/>
<text text-anchor="middle" x="195.735" y="-301.8" font-family="Times,serif" font-size="14.00" fill="white">objectAccessIndex</text>
</g>
<!-- objectContext&#45;&gt;objectAccessIndex -->
<g id="edge5" class="edge"><title>objectContext&#45;&gt;objectAccessIndex</title>
<path fill="none" stroke="black" d="M195.735,-359.697C195.735,-351.983 195.735,-342.712 195.735,-334.112"/>
<polygon fill="black" stroke="black" points="199.235,-334.104 195.735,-324.104 192.235,-334.104 199.235,-334.104"/>
</g>
<!-- collect access grants from access objects referenced in accessIndex -->
<g id="node7" class="node"><title>collect access grants from access objects referenced in accessIndex</title>
<polygon fill="none" stroke="black" points="391.706,-252 -0.235635,-252 -0.235635,-216 391.706,-216 391.706,-252"/>
<text text-anchor="middle" x="195.735" y="-229.8" font-family="Times,serif" font-size="14.00">collect access grants from access objects referenced in accessIndex</text>
</g>
<!-- objectAccessIndex&#45;&gt;collect access grants from access objects referenced in accessIndex -->
<g id="edge6" class="edge"><title>objectAccessIndex&#45;&gt;collect access grants from access objects referenced in accessIndex</title>
<path fill="none" stroke="black" d="M195.735,-287.697C195.735,-279.983 195.735,-270.712 195.735,-262.112"/>
<polygon fill="black" stroke="black" points="199.235,-262.104 195.735,-252.104 192.235,-262.104 199.235,-262.104"/>
</g>
<!-- access grants[] -->
<g id="node8" class="node"><title>access grants[]</title>
<polygon fill="blue" stroke="blue" points="287.226,-180 141.685,-180 104.245,-144 249.786,-144 287.226,-180"/>
<text text-anchor="middle" x="195.735" y="-157.8" font-family="Times,serif" font-size="14.00" fill="white">access grants[]</text>
</g>
<!-- collect access grants from access objects referenced in accessIndex&#45;&gt;access grants[] -->
<g id="edge7" class="edge"><title>collect access grants from access objects referenced in accessIndex&#45;&gt;access grants[]</title>
<path fill="none" stroke="black" d="M195.735,-215.697C195.735,-207.983 195.735,-198.712 195.735,-190.112"/>
<polygon fill="black" stroke="black" points="199.235,-190.104 195.735,-180.104 192.235,-190.104 199.235,-190.104"/>
</g>
<!-- collect list of person objects from access grants[] -->
<g id="node9" class="node"><title>collect list of person objects from access grants[]</title>
<polygon fill="none" stroke="black" points="340.809,-108 50.6621,-108 50.6621,-72 340.809,-72 340.809,-108"/>
<text text-anchor="middle" x="195.735" y="-85.8" font-family="Times,serif" font-size="14.00">collect list of person objects from access grants[]</text>
</g>
<!-- access grants[]&#45;&gt;collect list of person objects from access grants[] -->
<g id="edge8" class="edge"><title>access grants[]&#45;&gt;collect list of person objects from access grants[]</title>
<path fill="none" stroke="black" d="M195.735,-143.697C195.735,-135.983 195.735,-126.712 195.735,-118.112"/>
<polygon fill="black" stroke="black" points="199.235,-118.104 195.735,-108.104 192.235,-118.104 199.235,-118.104"/>
</g>
<!-- list of person objects we propagate someObject to -->
<g id="node10" class="node"><title>list of person objects we propagate someObject to</title>
<ellipse fill="none" stroke="black" cx="195.735" cy="-18" rx="186.865" ry="18"/>
<text text-anchor="middle" x="195.735" y="-13.8" font-family="Times,serif" font-size="14.00">list of person objects we propagate someObject to</text>
</g>
<!-- collect list of person objects from access grants[]&#45;&gt;list of person objects we propagate someObject to -->
<g id="edge9" class="edge"><title>collect list of person objects from access grants[]&#45;&gt;list of person objects we propagate someObject to</title>
<path fill="none" stroke="black" d="M195.735,-71.6966C195.735,-63.9827 195.735,-54.7125 195.735,-46.1124"/>
<polygon fill="black" stroke="black" points="199.235,-46.1043 195.735,-36.1043 192.235,-46.1044 199.235,-46.1043"/>
</g>
<!-- somePersonObject -->
<g id="node11" class="node"><title>somePersonObject</title>
<ellipse fill="none" stroke="black" cx="491.735" cy="-666" rx="76.3398" ry="18"/>
<text text-anchor="middle" x="491.735" y="-661.8" font-family="Times,serif" font-size="14.00">somePersonObject</text>
</g>
<!-- calculate objectId from somePersonObject -->
<g id="node12" class="node"><title>calculate objectId from somePersonObject</title>
<polygon fill="none" stroke="black" points="619.036,-612 364.434,-612 364.434,-576 619.036,-576 619.036,-612"/>
<text text-anchor="middle" x="491.735" y="-589.8" font-family="Times,serif" font-size="14.00">calculate objectId from somePersonObject</text>
</g>
<!-- somePersonObject&#45;&gt;calculate objectId from somePersonObject -->
<g id="edge10" class="edge"><title>somePersonObject&#45;&gt;calculate objectId from somePersonObject</title>
<path fill="none" stroke="black" d="M491.735,-647.697C491.735,-639.983 491.735,-630.712 491.735,-622.112"/>
<polygon fill="black" stroke="black" points="495.235,-622.104 491.735,-612.104 488.235,-622.104 495.235,-622.104"/>
</g>
<!-- somePersonObjectId -->
<g id="node13" class="node"><title>somePersonObjectId</title>
<polygon fill="black" stroke="black" points="614.43,-540 419.251,-540 369.041,-504 564.22,-504 614.43,-540"/>
<text text-anchor="middle" x="491.735" y="-517.8" font-family="Times,serif" font-size="14.00" fill="white">somePersonObjectId</text>
</g>
<!-- calculate objectId from somePersonObject&#45;&gt;somePersonObjectId -->
<g id="edge11" class="edge"><title>calculate objectId from somePersonObject&#45;&gt;somePersonObjectId</title>
<path fill="none" stroke="black" d="M491.735,-575.697C491.735,-567.983 491.735,-558.712 491.735,-550.112"/>
<polygon fill="black" stroke="black" points="495.235,-550.104 491.735,-540.104 488.235,-550.104 495.235,-550.104"/>
</g>
<!-- look up context for somePersonObjectId -->
<g id="node14" class="node"><title>look up context for somePersonObjectId</title>
<polygon fill="none" stroke="black" points="613.298,-468 370.173,-468 370.173,-432 613.298,-432 613.298,-468"/>
<text text-anchor="middle" x="491.735" y="-445.8" font-family="Times,serif" font-size="14.00">look up context for somePersonObjectId</text>
</g>
<!-- somePersonObjectId&#45;&gt;look up context for somePersonObjectId -->
<g id="edge12" class="edge"><title>somePersonObjectId&#45;&gt;look up context for somePersonObjectId</title>
<path fill="none" stroke="black" d="M491.735,-503.697C491.735,-495.983 491.735,-486.712 491.735,-478.112"/>
<polygon fill="black" stroke="black" points="495.235,-478.104 491.735,-468.104 488.235,-478.104 495.235,-478.104"/>
</g>
<!-- personContext -->
<g id="node15" class="node"><title>personContext</title>
<polygon fill="red" stroke="red" points="582.124,-396 438.336,-396 401.347,-360 545.135,-360 582.124,-396"/>
<text text-anchor="middle" x="491.735" y="-373.8" font-family="Times,serif" font-size="14.00" fill="white">personContext</text>
</g>
<!-- look up context for somePersonObjectId&#45;&gt;personContext -->
<g id="edge13" class="edge"><title>look up context for somePersonObjectId&#45;&gt;personContext</title>
<path fill="none" stroke="black" d="M491.735,-431.697C491.735,-423.983 491.735,-414.712 491.735,-406.112"/>
<polygon fill="black" stroke="black" points="495.235,-406.104 491.735,-396.104 488.235,-406.104 495.235,-406.104"/>
</g>
<!-- grantIndex -->
<g id="node16" class="node"><title>grantIndex</title>
<polygon fill="red" stroke="red" points="562.7,-324 449.811,-324 420.771,-288 533.659,-288 562.7,-324"/>
<text text-anchor="middle" x="491.735" y="-301.8" font-family="Times,serif" font-size="14.00" fill="white">grantIndex</text>
</g>
<!-- personContext&#45;&gt;grantIndex -->
<g id="edge14" class="edge"><title>personContext&#45;&gt;grantIndex</title>
<path fill="none" stroke="black" d="M491.735,-359.697C491.735,-351.983 491.735,-342.712 491.735,-334.112"/>
<polygon fill="black" stroke="black" points="495.235,-334.104 491.735,-324.104 488.235,-334.104 495.235,-334.104"/>
</g>
<!-- grantContext -->
<g id="node18" class="node"><title>grantContext</title>
<polygon fill="red" stroke="red" points="574.27,-252 442.976,-252 409.2,-216 540.495,-216 574.27,-252"/>
<text text-anchor="middle" x="491.735" y="-229.8" font-family="Times,serif" font-size="14.00" fill="white">grantContext</text>
</g>
<!-- grantIndex&#45;&gt;grantContext -->
<g id="edge15" class="edge"><title>grantIndex&#45;&gt;grantContext</title>
<path fill="none" stroke="black" d="M491.735,-287.697C491.735,-279.983 491.735,-270.712 491.735,-262.112"/>
<polygon fill="black" stroke="black" points="495.235,-262.104 491.735,-252.104 488.235,-262.104 495.235,-262.104"/>
</g>
<!-- collect objects from Access Objects -->
<g id="node17" class="node"><title>collect objects from Access Objects</title>
<polygon fill="none" stroke="black" points="599.564,-108 383.907,-108 383.907,-72 599.564,-72 599.564,-108"/>
<text text-anchor="middle" x="491.735" y="-85.8" font-family="Times,serif" font-size="14.00">collect objects from Access Objects</text>
</g>
<!-- accessibleObjects[] -->
<g id="node19" class="node"><title>accessibleObjects[]</title>
<ellipse fill="blue" stroke="blue" cx="491.735" cy="-18" rx="78.7108" ry="18"/>
<text text-anchor="middle" x="491.735" y="-13.8" font-family="Times,serif" font-size="14.00" fill="white">accessibleObjects[]</text>
</g>
<!-- collect objects from Access Objects&#45;&gt;accessibleObjects[] -->
<g id="edge18" class="edge"><title>collect objects from Access Objects&#45;&gt;accessibleObjects[]</title>
<path fill="none" stroke="black" d="M491.735,-71.6966C491.735,-63.9827 491.735,-54.7125 491.735,-46.1124"/>
<polygon fill="black" stroke="black" points="495.235,-46.1043 491.735,-36.1043 488.235,-46.1044 495.235,-46.1043"/>
</g>
<!-- grantAccessIndex -->
<g id="node20" class="node"><title>grantAccessIndex</title>
<polygon fill="red" stroke="red" points="599.642,-180 427.987,-180 383.829,-144 555.484,-144 599.642,-180"/>
<text text-anchor="middle" x="491.735" y="-157.8" font-family="Times,serif" font-size="14.00" fill="white">grantAccessIndex</text>
</g>
<!-- grantContext&#45;&gt;grantAccessIndex -->
<g id="edge16" class="edge"><title>grantContext&#45;&gt;grantAccessIndex</title>
<path fill="none" stroke="black" d="M491.735,-215.697C491.735,-207.983 491.735,-198.712 491.735,-190.112"/>
<polygon fill="black" stroke="black" points="495.235,-190.104 491.735,-180.104 488.235,-190.104 495.235,-190.104"/>
</g>
<!-- grantAccessIndex&#45;&gt;collect objects from Access Objects -->
<g id="edge17" class="edge"><title>grantAccessIndex&#45;&gt;collect objects from Access Objects</title>
<path fill="none" stroke="black" d="M491.735,-143.697C491.735,-135.983 491.735,-126.712 491.735,-118.112"/>
<polygon fill="black" stroke="black" points="495.235,-118.104 491.735,-108.104 488.235,-118.104 495.235,-118.104"/>
</g>
</g>
</svg>
