<?xml version="1.0" encoding="UTF-8" standalone="no"?>
<!DOCTYPE svg PUBLIC "-//W3C//DTD SVG 1.1//EN"
 "http://www.w3.org/Graphics/SVG/1.1/DTD/svg11.dtd">
<!-- Generated by graphviz version 2.38.0 (20140413.2041)
 -->
<!-- Title: one Pages: 1 -->
<svg width="671pt" height="1371pt"
     viewBox="0.00 0.00 671.41 1371.00" xmlns="http://www.w3.org/2000/svg">
<g id="graph0" class="graph" transform="scale(1 1) rotate(0) translate(4 1367)">
<title>one</title>
<polygon fill="white" stroke="none" points="-4,4 -4,-1367 667.407,-1367 667.407,4 -4,4"/>
<!-- create object -->
<g id="node1" class="node"><title>create object</title>
<ellipse fill="none" stroke="black" cx="247.368" cy="-1345" rx="55.056" ry="18"/>
<text text-anchor="middle" x="247.368" y="-1340.8" font-family="Times,serif" font-size="14.00">create object</text>
</g>
<!-- object -->
<g id="node2" class="node"><title>object</title>
<polygon fill="black" stroke="black" points="293.867,-1290 219.898,-1290 200.869,-1254 274.839,-1254 293.867,-1290"/>
<text text-anchor="middle" x="247.368" y="-1267.8" font-family="Times,serif" font-size="14.00" fill="white">object</text>
</g>
<!-- create object&#45;&gt;object -->
<g id="edge1" class="edge"><title>create object&#45;&gt;object</title>
<path fill="none" stroke="black" d="M247.368,-1326.81C247.368,-1318.79 247.368,-1309.05 247.368,-1300.07"/>
<polygon fill="black" stroke="black" points="250.868,-1300.03 247.368,-1290.03 243.868,-1300.03 250.868,-1300.03"/>
</g>
<!-- calculate objectId from object -->
<g id="node3" class="node"><title>calculate objectId from object</title>
<polygon fill="none" stroke="black" points="338.897,-1217 155.839,-1217 155.839,-1181 338.897,-1181 338.897,-1217"/>
<text text-anchor="middle" x="247.368" y="-1194.8" font-family="Times,serif" font-size="14.00">calculate objectId from object</text>
</g>
<!-- object&#45;&gt;calculate objectId from object -->
<g id="edge2" class="edge"><title>object&#45;&gt;calculate objectId from object</title>
<path fill="none" stroke="black" d="M247.368,-1253.81C247.368,-1245.79 247.368,-1236.05 247.368,-1227.07"/>
<polygon fill="black" stroke="black" points="250.868,-1227.03 247.368,-1217.03 243.868,-1227.03 250.868,-1227.03"/>
</g>
<!-- objectId -->
<g id="node4" class="node"><title>objectId</title>
<polygon fill="black" stroke="black" points="304.47,-1144 213.634,-1144 190.266,-1108 281.103,-1108 304.47,-1144"/>
<text text-anchor="middle" x="247.368" y="-1121.8" font-family="Times,serif" font-size="14.00" fill="white">objectId</text>
</g>
<!-- calculate objectId from object&#45;&gt;objectId -->
<g id="edge3" class="edge"><title>calculate objectId from object&#45;&gt;objectId</title>
<path fill="none" stroke="black" d="M247.368,-1180.81C247.368,-1172.79 247.368,-1163.05 247.368,-1154.07"/>
<polygon fill="black" stroke="black" points="250.868,-1154.03 247.368,-1144.03 243.868,-1154.03 250.868,-1154.03"/>
</g>
<!-- create story -->
<g id="node5" class="node"><title>create story</title>
<polygon fill="none" stroke="black" points="287.775,-1071 206.961,-1071 206.961,-1035 287.775,-1035 287.775,-1071"/>
<text text-anchor="middle" x="247.368" y="-1048.8" font-family="Times,serif" font-size="14.00">create story</text>
</g>
<!-- objectId&#45;&gt;create story -->
<g id="edge4" class="edge"><title>objectId&#45;&gt;create story</title>
<path fill="none" stroke="black" d="M247.368,-1107.81C247.368,-1099.79 247.368,-1090.05 247.368,-1081.07"/>
<polygon fill="black" stroke="black" points="250.868,-1081.03 247.368,-1071.03 243.868,-1081.03 250.868,-1081.03"/>
</g>
<!-- story -->
<g id="node6" class="node"><title>story</title>
<polygon fill="green" stroke="black" points="287.872,-998 223.44,-998 206.865,-962 271.297,-962 287.872,-998"/>
<text text-anchor="middle" x="247.368" y="-975.8" font-family="Times,serif" font-size="14.00" fill="white">story</text>
</g>
<!-- create story&#45;&gt;story -->
<g id="edge5" class="edge"><title>create story&#45;&gt;story</title>
<path fill="none" stroke="black" d="M247.368,-1034.81C247.368,-1026.79 247.368,-1017.05 247.368,-1008.07"/>
<polygon fill="black" stroke="black" points="250.868,-1008.03 247.368,-998.029 243.868,-1008.03 250.868,-1008.03"/>
</g>
<!-- look up objectId in (instance.)contextIndex -->
<g id="node7" class="node"><title>look up objectId in (instance.)contextIndex</title>
<polygon fill="none" stroke="black" points="376.293,-925 118.443,-925 118.443,-889 376.293,-889 376.293,-925"/>
<text text-anchor="middle" x="247.368" y="-902.8" font-family="Times,serif" font-size="14.00">look up objectId in (instance.)contextIndex</text>
</g>
<!-- story&#45;&gt;look up objectId in (instance.)contextIndex -->
<g id="edge6" class="edge"><title>story&#45;&gt;look up objectId in (instance.)contextIndex</title>
<path fill="none" stroke="black" d="M247.368,-961.813C247.368,-953.789 247.368,-944.047 247.368,-935.069"/>
<polygon fill="black" stroke="black" points="250.868,-935.029 247.368,-925.029 243.868,-935.029 250.868,-935.029"/>
</g>
<!-- objectId reference in (instance.)contextIndex -->
<g id="node8" class="node"><title>objectId reference in (instance.)contextIndex</title>
<polygon fill="black" stroke="black" points="494.605,-852 101.307,-852 0.131759,-816 393.43,-816 494.605,-852"/>
<text text-anchor="middle" x="247.368" y="-829.8" font-family="Times,serif" font-size="14.00" fill="white">objectId reference in (instance.)contextIndex</text>
</g>
<!-- look up objectId in (instance.)contextIndex&#45;&gt;objectId reference in (instance.)contextIndex -->
<g id="edge7" class="edge"><title>look up objectId in (instance.)contextIndex&#45;&gt;objectId reference in (instance.)contextIndex</title>
<path fill="none" stroke="black" d="M247.368,-888.813C247.368,-880.789 247.368,-871.047 247.368,-862.069"/>
<polygon fill="black" stroke="black" points="250.868,-862.029 247.368,-852.029 243.868,-862.029 250.868,-862.029"/>
</g>
<!-- is there a previous context? -->
<g id="node9" class="node"><title>is there a previous context?</title>
<polygon fill="none" stroke="black" points="247.368,-779 96.1276,-761 247.368,-743 398.609,-761 247.368,-779"/>
<text text-anchor="middle" x="247.368" y="-756.8" font-family="Times,serif" font-size="14.00">is there a previous context?</text>
</g>
<!-- objectId reference in (instance.)contextIndex&#45;&gt;is there a previous context? -->
<g id="edge8" class="edge"><title>objectId reference in (instance.)contextIndex&#45;&gt;is there a previous context?</title>
<path fill="none" stroke="black" d="M247.368,-815.813C247.368,-807.789 247.368,-798.047 247.368,-789.069"/>
<polygon fill="black" stroke="black" points="250.868,-789.029 247.368,-779.029 243.868,-789.029 250.868,-789.029"/>
</g>
<!-- append story to storyIndex -->
<g id="node10" class="node"><title>append story to storyIndex</title>
<polygon fill="none" stroke="black" points="600.062,-779 434.675,-779 434.675,-743 600.062,-743 600.062,-779"/>
<text text-anchor="middle" x="517.368" y="-756.8" font-family="Times,serif" font-size="14.00">append story to storyIndex</text>
</g>
<!-- is there a previous context?&#45;&gt;append story to storyIndex -->
<g id="edge14" class="edge"><title>is there a previous context?&#45;&gt;append story to storyIndex</title>
<path fill="none" stroke="black" d="M398.549,-761C407.288,-761 415.934,-761 424.339,-761"/>
<polygon fill="black" stroke="black" points="424.463,-764.5 434.463,-761 424.463,-757.5 424.463,-764.5"/>
<text text-anchor="middle" x="416.505" y="-766.8" font-family="Times,serif" font-size="14.00">yes</text>
</g>
<!-- create newStoryIndex -->
<g id="node11" class="node"><title>create newStoryIndex</title>
<polygon fill="none" stroke="black" points="323.814,-693 184.922,-693 184.922,-657 323.814,-657 323.814,-693"/>
<text text-anchor="middle" x="254.368" y="-670.8" font-family="Times,serif" font-size="14.00">create newStoryIndex</text>
</g>
<!-- is there a previous context?&#45;&gt;create newStoryIndex -->
<g id="edge9" class="edge"><title>is there a previous context?&#45;&gt;create newStoryIndex</title>
<path fill="none" stroke="black" d="M248.785,-743.001C249.727,-731.691 250.987,-716.576 252.071,-703.566"/>
<polygon fill="black" stroke="black" points="255.587,-703.518 252.93,-693.262 248.611,-702.936 255.587,-703.518"/>
<text text-anchor="middle" x="258.368" y="-713.8" font-family="Times,serif" font-size="14.00">no</text>
</g>
<!-- rename index to new hash -->
<g id="node16" class="node"><title>rename index to new hash</title>
<polygon fill="none" stroke="black" points="597.541,-693 435.195,-693 435.195,-657 597.541,-657 597.541,-693"/>
<text text-anchor="middle" x="516.368" y="-670.8" font-family="Times,serif" font-size="14.00">rename index to new hash</text>
</g>
<!-- append story to storyIndex&#45;&gt;rename index to new hash -->
<g id="edge15" class="edge"><title>append story to storyIndex&#45;&gt;rename index to new hash</title>
<path fill="none" stroke="black" d="M517.161,-742.595C517.026,-731.257 516.847,-716.227 516.693,-703.315"/>
<polygon fill="black" stroke="black" points="520.191,-703.053 516.572,-693.095 513.191,-703.136 520.191,-703.053"/>
</g>
<!-- newStoryIndex -->
<g id="node12" class="node"><title>newStoryIndex</title>
<polygon fill="red" stroke="black" points="349.449,-620 199.788,-620 161.288,-584 310.949,-584 349.449,-620"/>
<text text-anchor="middle" x="255.368" y="-597.8" font-family="Times,serif" font-size="14.00" fill="white">newStoryIndex</text>
</g>
<!-- create newStoryIndex&#45;&gt;newStoryIndex -->
<g id="edge10" class="edge"><title>create newStoryIndex&#45;&gt;newStoryIndex</title>
<path fill="none" stroke="black" d="M254.61,-656.813C254.723,-648.789 254.86,-639.047 254.987,-630.069"/>
<polygon fill="black" stroke="black" points="258.487,-630.077 255.128,-620.029 251.488,-629.979 258.487,-630.077"/>
</g>
<!-- create context -->
<g id="node13" class="node"><title>create context</title>
<polygon fill="none" stroke="black" points="343.482,-547 249.254,-547 249.254,-511 343.482,-511 343.482,-547"/>
<text text-anchor="middle" x="296.368" y="-524.8" font-family="Times,serif" font-size="14.00">create context</text>
</g>
<!-- newStoryIndex&#45;&gt;create context -->
<g id="edge11" class="edge"><title>newStoryIndex&#45;&gt;create context</title>
<path fill="none" stroke="black" d="M265.293,-583.813C270.128,-575.441 276.043,-565.197 281.41,-555.903"/>
<polygon fill="black" stroke="black" points="284.565,-557.439 286.535,-547.029 278.503,-553.938 284.565,-557.439"/>
</g>
<!-- newContext -->
<g id="node14" class="node"><title>newContext</title>
<polygon fill="red" stroke="black" points="378.824,-474 255.609,-474 223.912,-438 347.127,-438 378.824,-474"/>
<text text-anchor="middle" x="301.368" y="-451.8" font-family="Times,serif" font-size="14.00" fill="white">newContext</text>
</g>
<!-- create context&#45;&gt;newContext -->
<g id="edge12" class="edge"><title>create context&#45;&gt;newContext</title>
<path fill="none" stroke="black" d="M297.579,-510.813C298.144,-502.789 298.83,-493.047 299.462,-484.069"/>
<polygon fill="black" stroke="black" points="302.958,-484.25 300.169,-474.029 295.975,-483.758 302.958,-484.25"/>
</g>
<!-- update contextIndex -->
<g id="node15" class="node"><title>update contextIndex</title>
<polygon fill="none" stroke="black" points="483.269,-401 353.468,-401 353.468,-365 483.269,-365 483.269,-401"/>
<text text-anchor="middle" x="418.368" y="-378.8" font-family="Times,serif" font-size="14.00">update contextIndex</text>
</g>
<!-- newContext&#45;&gt;update contextIndex -->
<g id="edge13" class="edge"><title>newContext&#45;&gt;update contextIndex</title>
<path fill="none" stroke="black" d="M329.393,-437.994C344.908,-428.579 364.391,-416.755 381.167,-406.575"/>
<polygon fill="black" stroke="black" points="383.434,-409.294 390.167,-401.114 379.802,-403.309 383.434,-409.294"/>
</g>
<!-- updated contextIndex -->
<g id="node20" class="node"><title>updated contextIndex</title>
<polygon fill="red" stroke="black" points="544.951,-328 343.586,-328 291.785,-292 493.15,-292 544.951,-328"/>
<text text-anchor="middle" x="418.368" y="-305.8" font-family="Times,serif" font-size="14.00" fill="white">updated contextIndex</text>
</g>
<!-- update contextIndex&#45;&gt;updated contextIndex -->
<g id="edge20" class="edge"><title>update contextIndex&#45;&gt;updated contextIndex</title>
<path fill="none" stroke="black" d="M418.368,-364.813C418.368,-356.789 418.368,-347.047 418.368,-338.069"/>
<polygon fill="black" stroke="black" points="421.868,-338.029 418.368,-328.029 414.868,-338.029 421.868,-338.029"/>
</g>
<!-- updated (new) storyIndex -->
<g id="node17" class="node"><title>updated (new) storyIndex</title>
<polygon fill="red" stroke="black" points="663.446,-620 427.888,-620 367.291,-584 602.849,-584 663.446,-620"/>
<text text-anchor="middle" x="515.368" y="-597.8" font-family="Times,serif" font-size="14.00" fill="white">updated (new) storyIndex</text>
</g>
<!-- rename index to new hash&#45;&gt;updated (new) storyIndex -->
<g id="edge16" class="edge"><title>rename index to new hash&#45;&gt;updated (new) storyIndex</title>
<path fill="none" stroke="black" d="M516.126,-656.813C516.013,-648.789 515.876,-639.047 515.749,-630.069"/>
<polygon fill="black" stroke="black" points="519.249,-629.979 515.608,-620.029 512.249,-630.077 519.249,-629.979"/>
</g>
<!-- update storyIndex attribute in context -->
<g id="node18" class="node"><title>update storyIndex attribute in context</title>
<polygon fill="none" stroke="black" points="610.307,-547 384.43,-547 384.43,-511 610.307,-511 610.307,-547"/>
<text text-anchor="middle" x="497.368" y="-524.8" font-family="Times,serif" font-size="14.00">update storyIndex attribute in context</text>
</g>
<!-- updated (new) storyIndex&#45;&gt;update storyIndex attribute in context -->
<g id="edge17" class="edge"><title>updated (new) storyIndex&#45;&gt;update storyIndex attribute in context</title>
<path fill="none" stroke="black" d="M511.011,-583.813C508.955,-575.702 506.453,-565.836 504.157,-556.777"/>
<polygon fill="black" stroke="black" points="507.536,-555.862 501.685,-547.029 500.75,-557.582 507.536,-555.862"/>
</g>
<!-- updated context -->
<g id="node19" class="node"><title>updated context</title>
<polygon fill="red" stroke="black" points="591.407,-474 437.04,-474 397.329,-438 551.696,-438 591.407,-474"/>
<text text-anchor="middle" x="494.368" y="-451.8" font-family="Times,serif" font-size="14.00" fill="white">updated context</text>
</g>
<!-- update storyIndex attribute in context&#45;&gt;updated context -->
<g id="edge18" class="edge"><title>update storyIndex attribute in context&#45;&gt;updated context</title>
<path fill="none" stroke="black" d="M496.642,-510.813C496.303,-502.789 495.891,-493.047 495.512,-484.069"/>
<polygon fill="black" stroke="black" points="499.007,-483.872 495.088,-474.029 492.013,-484.168 499.007,-483.872"/>
</g>
<!-- updated context&#45;&gt;update contextIndex -->
<g id="edge19" class="edge"><title>updated context&#45;&gt;update contextIndex</title>
<path fill="none" stroke="black" d="M475.971,-437.813C466.355,-428.83 454.434,-417.693 443.936,-407.886"/>
<polygon fill="black" stroke="black" points="446.293,-405.298 436.596,-401.029 441.514,-410.413 446.293,-405.298"/>
</g>
<!-- update instanceContextIndex -->
<g id="node21" class="node"><title>update instanceContextIndex</title>
<polygon fill="none" stroke="black" points="507.762,-255 328.975,-255 328.975,-219 507.762,-219 507.762,-255"/>
<text text-anchor="middle" x="418.368" y="-232.8" font-family="Times,serif" font-size="14.00">update instanceContextIndex</text>
</g>
<!-- updated contextIndex&#45;&gt;update instanceContextIndex -->
<g id="edge21" class="edge"><title>updated contextIndex&#45;&gt;update instanceContextIndex</title>
<path fill="none" stroke="black" d="M418.368,-291.813C418.368,-283.789 418.368,-274.047 418.368,-265.069"/>
<polygon fill="black" stroke="black" points="421.868,-265.029 418.368,-255.029 414.868,-265.029 421.868,-265.029"/>
</g>
<!-- updated instanceContextIndex -->
<g id="node22" class="node"><title>updated instanceContextIndex</title>
<polygon fill="red" stroke="black" points="590.702,-182 316.558,-182 246.035,-146 520.179,-146 590.702,-182"/>
<text text-anchor="middle" x="418.368" y="-159.8" font-family="Times,serif" font-size="14.00" fill="white">updated instanceContextIndex</text>
</g>
<!-- update instanceContextIndex&#45;&gt;updated instanceContextIndex -->
<g id="edge22" class="edge"><title>update instanceContextIndex&#45;&gt;updated instanceContextIndex</title>
<path fill="none" stroke="black" d="M418.368,-218.813C418.368,-210.789 418.368,-201.047 418.368,-192.069"/>
<polygon fill="black" stroke="black" points="421.868,-192.029 418.368,-182.029 414.868,-192.029 421.868,-192.029"/>
</g>
<!-- update instanceContext -->
<g id="node23" class="node"><title>update instanceContext</title>
<polygon fill="none" stroke="black" points="491.886,-109 344.851,-109 344.851,-73 491.886,-73 491.886,-109"/>
<text text-anchor="middle" x="418.368" y="-86.8" font-family="Times,serif" font-size="14.00">update instanceContext</text>
</g>
<!-- updated instanceContextIndex&#45;&gt;update instanceContext -->
<g id="edge23" class="edge"><title>updated instanceContextIndex&#45;&gt;update instanceContext</title>
<path fill="none" stroke="black" d="M418.368,-145.813C418.368,-137.789 418.368,-128.047 418.368,-119.069"/>
<polygon fill="black" stroke="black" points="421.868,-119.029 418.368,-109.029 414.868,-119.029 421.868,-119.029"/>
</g>
<!-- updated instanceContext -->
<g id="node24" class="node"><title>updated instanceContext</title>
<polygon fill="red" stroke="black" points="561.157,-36 334.012,-36 275.579,-1.06581e-14 502.725,-0 561.157,-36"/>
<text text-anchor="middle" x="418.368" y="-13.8" font-family="Times,serif" font-size="14.00" fill="white">updated instanceContext</text>
</g>
<!-- update instanceContext&#45;&gt;updated instanceContext -->
<g id="edge24" class="edge"><title>update instanceContext&#45;&gt;updated instanceContext</title>
<path fill="none" stroke="black" d="M418.368,-72.8129C418.368,-64.7895 418.368,-55.0475 418.368,-46.0691"/>
<polygon fill="black" stroke="black" points="421.868,-46.0288 418.368,-36.0288 414.868,-46.0289 421.868,-46.0288"/>
</g>
</g>
</svg>
