<?xml version="1.0" encoding="UTF-8" standalone="no"?>
<!DOCTYPE svg PUBLIC "-//W3C//DTD SVG 1.1//EN"
 "http://www.w3.org/Graphics/SVG/1.1/DTD/svg11.dtd">
<!-- Generated by graphviz version 2.38.0 (20140413.2041)
 -->
<!-- Title: one Pages: 1 -->
<svg width="906pt" height="944pt"
 viewBox="0.00 0.00 906.00 944.00" xmlns="http://www.w3.org/2000/svg" xmlns:xlink="http://www.w3.org/1999/xlink">
<g id="graph0" class="graph" transform="scale(1 1) rotate(0) translate(4 940)">
<title>one</title>
<polygon fill="white" stroke="none" points="-4,4 -4,-940 902,-940 902,4 -4,4"/>
<!-- authObject -->
<g id="node1" class="node"><title>authObject</title>
<image xlink:href="kitten.jpg" width="228px" height="138px" preserveAspectRatio="xMinYMin meet" x="398" y="-928"/>
</g>
<!-- contextIndex -->
<g id="node10" class="node"><title>contextIndex</title>
<polygon fill="red" stroke="none" points="431,-719 431,-741 593,-741 593,-719 431,-719"/>
<text text-anchor="start" x="475.458" y="-725.8" font-family="Times,serif" font-size="14.00" fill="white">contextIndex</text>
<text text-anchor="start" x="470.014" y="-703.8" font-family="Times,serif" font-size="14.00">from : objectId</text>
<text text-anchor="start" x="466.121" y="-681.8" font-family="Times,serif" font-size="14.00">to : contextHash</text>
<text text-anchor="start" x="434.638" y="-659.8" font-family="Times,serif" font-size="14.00">IndexItem : IndexItemHash</text>
<polygon fill="none" stroke="red" points="430,-652 430,-742 594,-742 594,-652 430,-652"/>
</g>
<!-- authObject&#45;&gt;contextIndex -->
<g id="edge8" class="edge"><title>authObject&#45;&gt;contextIndex</title>
<path fill="none" stroke="black" d="M512,-781.749C512,-773.26 512,-764.714 512,-756.496"/>
<polygon fill="black" stroke="black" points="515.5,-756.29 512,-746.29 508.5,-756.29 515.5,-756.29"/>
</g>
<!-- instanceStory -->
<g id="node2" class="node"><title>instanceStory</title>
<polygon fill="green" stroke="none" points="755,-317 755,-339 839,-339 839,-317 755,-317"/>
<text text-anchor="start" x="758.896" y="-323.8" font-family="Times,serif" font-size="14.00" fill="white">instanceStory</text>
<text text-anchor="start" x="779.896" y="-301.8" font-family="Times,serif" font-size="14.00">object</text>
<text text-anchor="start" x="785.341" y="-279.8" font-family="Times,serif" font-size="14.00">date</text>
<text text-anchor="start" x="783" y="-257.8" font-family="Times,serif" font-size="14.00">story</text>
<polygon fill="none" stroke="green" points="754,-250 754,-340 840,-340 840,-250 754,-250"/>
</g>
<!-- instance -->
<g id="node3" class="node"><title>instance</title>
<polygon fill="black" stroke="none" points="560,-183 560,-205 691,-205 691,-183 560,-183"/>
<text text-anchor="start" x="602.565" y="-189.8" font-family="Times,serif" font-size="14.00" fill="white">instance</text>
<text text-anchor="start" x="588.952" y="-167.8" font-family="Times,serif" font-size="14.00">name : string</text>
<text text-anchor="start" x="563.683" y="-145.8" font-family="Times,serif" font-size="14.00">ownerId : personHash</text>
<text text-anchor="start" x="563.676" y="-123.8" font-family="Times,serif" font-size="14.00">module : moduleHash</text>
<polygon fill="none" stroke="black" points="558.5,-116 558.5,-206 691.5,-206 691.5,-116 558.5,-116"/>
</g>
<!-- instanceStory&#45;&gt;instance -->
<g id="edge13" class="edge"><title>instanceStory:object&#45;&gt;instance</title>
<path fill="none" stroke="black" d="M754,-306C724.186,-306 742.407,-269.454 724,-246 716.016,-235.826 706.637,-225.994 696.891,-216.86"/>
<polygon fill="black" stroke="black" points="699.132,-214.167 689.383,-210.018 694.417,-219.34 699.132,-214.167"/>
</g>
<!-- instanceOwner -->
<g id="node4" class="node"><title>instanceOwner</title>
<polygon fill="black" stroke="none" points="477,-49 477,-71 568,-71 568,-49 477,-49"/>
<text text-anchor="start" x="480.517" y="-55.8" font-family="Times,serif" font-size="14.00" fill="white">instanceOwner</text>
<text text-anchor="start" x="485.562" y="-33.8" font-family="Times,serif" font-size="14.00">email : string</text>
<text text-anchor="start" x="484.79" y="-11.8" font-family="Times,serif" font-size="14.00">secret : string</text>
<polygon fill="none" stroke="black" points="475.5,-4 475.5,-72 568.5,-72 568.5,-4 475.5,-4"/>
</g>
<!-- instance&#45;&gt;instanceOwner -->
<g id="edge1" class="edge"><title>instance:ownerId&#45;&gt;instanceOwner</title>
<path fill="none" stroke="black" stroke-dasharray="5,2" d="M559,-150C555.414,-150 544.526,-116.223 535.482,-85.9345"/>
<polygon fill="black" stroke="black" points="538.816,-84.866 532.622,-76.2702 532.104,-86.8523 538.816,-84.866"/>
</g>
<!-- instanceOwnerStory -->
<g id="node5" class="node"><title>instanceOwnerStory</title>
<polygon fill="green" stroke="none" points="63,-183 63,-205 241,-205 241,-183 63,-183"/>
<text text-anchor="start" x="66.8481" y="-189.8" font-family="Times,serif" font-size="14.00" fill="white">instanceOwnerStory &#160;&#160;&#160;&#160;&#160;&#160;&#160;&#160;&#160;&#160;&#160;&#160;&#160;&#160;&#160;</text>
<text text-anchor="start" x="112.348" y="-167.8" font-family="Times,serif" font-size="14.00">object : object</text>
<text text-anchor="start" x="118.952" y="-145.8" font-family="Times,serif" font-size="14.00">date : string</text>
<text text-anchor="start" x="104.169" y="-123.8" font-family="Times,serif" font-size="14.00">story : storyHash</text>
<polygon fill="none" stroke="green" points="62,-116 62,-206 242,-206 242,-116 62,-116"/>
</g>
<!-- instanceOwnerStory&#45;&gt;instanceOwner -->
<g id="edge2" class="edge"><title>instanceOwnerStory:object&#45;&gt;instanceOwner</title>
<path fill="none" stroke="black" d="M242,-172C278.175,-172 266.569,-131.561 297,-112 346.184,-80.3852 410.253,-61.3565 457.438,-50.6929"/>
<polygon fill="black" stroke="black" points="458.221,-54.1044 467.239,-48.5429 456.721,-47.267 458.221,-54.1044"/>
</g>
<!-- instanceOwnerStoryIndex -->
<g id="node6" class="node"><title>instanceOwnerStoryIndex</title>
<polygon fill="red" stroke="none" points="9,-317 9,-339 219,-339 219,-317 9,-317"/>
<text text-anchor="start" x="12.9102" y="-324.8" font-family="Times,serif" font-size="14.00"> &#160;&#160;&#160;&#160;&#160;&#160;&#160;&#160;&#160;&#160;&#160;&#160;&#160;&#160;&#160;</text>
<text text-anchor="start" x="68.9102" y="-324.8" font-family="Times,serif" font-size="14.00" fill="white">instanceOwnerStoryIndex</text>
<text text-anchor="start" x="77.8447" y="-301.8" font-family="Times,serif" font-size="14.00">from : object</text>
<text text-anchor="start" x="87.9414" y="-279.8" font-family="Times,serif" font-size="14.00">to : Story</text>
<text text-anchor="start" x="36.6377" y="-257.8" font-family="Times,serif" font-size="14.00">IndexItem : IndexItemHash</text>
<polygon fill="none" stroke="red" points="8,-250 8,-340 220,-340 220,-250 8,-250"/>
</g>
<!-- instanceOwnerStoryIndex&#45;&gt;instanceOwnerStory -->
<g id="edge3" class="edge"><title>instanceOwnerStoryIndex:IndexItem&#45;&gt;instanceOwnerStory</title>
<path fill="none" stroke="black" d="M114,-250C114,-239.89 116.14,-229.623 119.404,-219.843"/>
<polygon fill="black" stroke="black" points="122.768,-220.841 123.005,-210.248 116.214,-218.381 122.768,-220.841"/>
</g>
<!-- instanceOwnerContext -->
<g id="node7" class="node"><title>instanceOwnerContext</title>
<polygon fill="red" stroke="none" points="275,-451 275,-473 472,-473 472,-451 275,-451"/>
<text text-anchor="start" x="309.352" y="-457.8" font-family="Times,serif" font-size="14.00" fill="white">instanceOwnerContext</text>
<text text-anchor="start" x="320.627" y="-435.8" font-family="Times,serif" font-size="14.00">id : instanceOwner</text>
<text text-anchor="start" x="308.179" y="-413.8" font-family="Times,serif" font-size="14.00">index : storyIndexHash</text>
<text text-anchor="start" x="278.645" y="-391.8" font-family="Times,serif" font-size="14.00">index : instanceOwnerGrantIndex</text>
<polygon fill="none" stroke="red" points="273.5,-384 273.5,-474 472.5,-474 472.5,-384 273.5,-384"/>
</g>
<!-- instanceOwnerContext&#45;&gt;instanceOwnerStoryIndex -->
<g id="edge6" class="edge"><title>instanceOwnerContext:storyIndexHash&#45;&gt;instanceOwnerStoryIndex</title>
<path fill="none" stroke="black" d="M274,-418C226.785,-418 184.825,-383.99 155.732,-351.884"/>
<polygon fill="black" stroke="black" points="158.221,-349.414 148.988,-344.218 152.965,-354.037 158.221,-349.414"/>
</g>
<!-- instanceOwnerGrantIndex -->
<g id="node8" class="node"><title>instanceOwnerGrantIndex</title>
<polygon fill="red" stroke="none" points="255,-317 255,-339 505,-339 505,-317 255,-317"/>
<text text-anchor="start" x="306.141" y="-323.8" font-family="Times,serif" font-size="14.00" fill="white">instanceOwnerGrantIndex</text>
<text text-anchor="start" x="258.806" y="-301.8" font-family="Times,serif" font-size="14.00">from : accessIsGrantedTo(for now: Person)</text>
<text text-anchor="start" x="299.531" y="-279.8" font-family="Times,serif" font-size="14.00">to : grant(parent)ObjectHash</text>
<text text-anchor="start" x="302.638" y="-257.8" font-family="Times,serif" font-size="14.00">IndexItem : IndexItemHash</text>
<polygon fill="none" stroke="red" points="254,-250 254,-340 506,-340 506,-250 254,-250"/>
</g>
<!-- instanceOwnerContext&#45;&gt;instanceOwnerGrantIndex -->
<g id="edge4" class="edge"><title>instanceOwnerContext:instanceOwnerGrantIndexHash&#45;&gt;instanceOwnerGrantIndex</title>
<path fill="none" stroke="black" d="M374,-384C374,-374.453 374.356,-364.337 374.894,-354.495"/>
<polygon fill="black" stroke="black" points="378.396,-354.569 375.514,-344.374 371.409,-354.141 378.396,-354.569"/>
</g>
<!-- instanceAccessGrant -->
<g id="node9" class="node"><title>instanceAccessGrant</title>
<polygon fill="blue" stroke="none" points="315,-161 315,-183 523,-183 523,-161 315,-161"/>
<text text-anchor="start" x="360.303" y="-167.8" font-family="Times,serif" font-size="14.00" fill="white">instanceAccessGrant</text>
<text text-anchor="start" x="318.809" y="-145.8" font-family="Times,serif" font-size="14.00">accessIsGrantedTo : instanceOwner</text>
<polygon fill="none" stroke="blue" points="314,-138 314,-184 524,-184 524,-138 314,-138"/>
</g>
<!-- instanceOwnerGrantIndex&#45;&gt;instanceAccessGrant -->
<g id="edge5" class="edge"><title>instanceOwnerGrantIndex:from&#45;&gt;instanceAccessGrant</title>
<path fill="none" stroke="black" d="M506,-306C532.67,-306 515.556,-270.493 505,-246 496.411,-226.07 480.61,-208.471 464.874,-194.598"/>
<polygon fill="black" stroke="black" points="467.08,-191.881 457.185,-188.094 462.559,-197.225 467.08,-191.881"/>
</g>
<!-- instanceAccessGrant&#45;&gt;instanceOwner -->
<g id="edge18" class="edge"><title>instanceAccessGrant:accessIsGrantedTo&#45;&gt;instanceOwner</title>
<path fill="none" stroke="black" d="M524,-150C537.55,-150 535.612,-116.515 531.112,-86.328"/>
<polygon fill="black" stroke="black" points="534.539,-85.5933 529.507,-76.2702 527.627,-86.6969 534.539,-85.5933"/>
</g>
<!-- contextIndex&#45;&gt;instanceOwnerContext -->
<g id="edge7" class="edge"><title>contextIndex&#45;&gt;instanceOwnerContext</title>
<path fill="none" stroke="black" d="M486.828,-647.829C463.235,-602.681 427.946,-535.149 402.923,-487.263"/>
<polygon fill="black" stroke="black" points="405.952,-485.503 398.219,-478.261 399.748,-488.745 405.952,-485.503"/>
</g>
<!-- instanceContext -->
<g id="node11" class="node"><title>instanceContext</title>
<polygon fill="red" stroke="none" points="522,-585 522,-607 668,-607 668,-585 522,-585"/>
<text text-anchor="start" x="549.9" y="-591.8" font-family="Times,serif" font-size="14.00" fill="white">instanceContext</text>
<text text-anchor="start" x="555.345" y="-569.8" font-family="Times,serif" font-size="14.00">id : instanceId</text>
<text text-anchor="start" x="525.803" y="-547.8" font-family="Times,serif" font-size="14.00">index : accessIndexHash</text>
<text text-anchor="start" x="529.679" y="-525.8" font-family="Times,serif" font-size="14.00">index : storyIndexHash</text>
<polygon fill="none" stroke="red" points="521,-518 521,-608 669,-608 669,-518 521,-518"/>
</g>
<!-- contextIndex&#45;&gt;instanceContext -->
<g id="edge9" class="edge"><title>contextIndex&#45;&gt;instanceContext:contextIndexHash</title>
<path fill="none" stroke="black" d="M542.2,-647.972C547.75,-639.145 553.591,-629.855 559.285,-620.8"/>
<polygon fill="black" stroke="black" points="562.324,-622.543 564.684,-612.214 556.398,-618.816 562.324,-622.543"/>
</g>
<!-- accessIndex -->
<g id="node12" class="node"><title>accessIndex</title>
<polygon fill="red" stroke="none" points="508,-451 508,-473 683,-473 683,-451 508,-451"/>
<text text-anchor="start" x="561.686" y="-457.8" font-family="Times,serif" font-size="14.00" fill="white">accessIndex</text>
<text text-anchor="start" x="559.345" y="-435.8" font-family="Times,serif" font-size="14.00">from : object</text>
<text text-anchor="start" x="511.538" y="-413.8" font-family="Times,serif" font-size="14.00">to : access(parent)ObjectHash</text>
<text text-anchor="start" x="518.138" y="-391.8" font-family="Times,serif" font-size="14.00">IndexItem : IndexItemHash</text>
<polygon fill="none" stroke="red" points="506.5,-384 506.5,-474 683.5,-474 683.5,-384 506.5,-384"/>
</g>
<!-- instanceContext&#45;&gt;accessIndex -->
<g id="edge10" class="edge"><title>instanceContext:accessIndexHash&#45;&gt;accessIndex</title>
<path fill="none" stroke="black" d="M669,-552C702.483,-552 679.98,-517.99 651.277,-485.884"/>
<polygon fill="black" stroke="black" points="653.606,-483.244 644.28,-478.218 648.436,-487.963 653.606,-483.244"/>
</g>
<!-- instanceStoryIndex -->
<g id="node13" class="node"><title>instanceStoryIndex</title>
<polygon fill="red" stroke="none" points="719,-451 719,-473 887,-473 887,-451 719,-451"/>
<text text-anchor="start" x="748.958" y="-457.8" font-family="Times,serif" font-size="14.00" fill="white">instanceStoryIndex</text>
<text text-anchor="start" x="766.845" y="-435.8" font-family="Times,serif" font-size="14.00">from : object</text>
<text text-anchor="start" x="722.914" y="-413.8" font-family="Times,serif" font-size="14.00">to : story(parent)ObjectHash</text>
<text text-anchor="start" x="725.638" y="-391.8" font-family="Times,serif" font-size="14.00">IndexItem : IndexItemHash</text>
<polygon fill="none" stroke="red" points="718,-384 718,-474 888,-474 888,-384 718,-384"/>
</g>
<!-- instanceContext&#45;&gt;instanceStoryIndex -->
<g id="edge11" class="edge"><title>instanceContext:storyIndexHash&#45;&gt;instanceStoryIndex</title>
<path fill="none" stroke="black" d="M669,-530C703.462,-530 734.778,-508.494 758.456,-485.429"/>
<polygon fill="black" stroke="black" points="761.017,-487.817 765.554,-478.243 756.036,-482.898 761.017,-487.817"/>
</g>
<!-- instanceAccess -->
<g id="node14" class="node"><title>instanceAccess</title>
<polygon fill="blue" stroke="none" points="542,-306 542,-328 707,-328 707,-306 542,-306"/>
<text text-anchor="start" x="581.741" y="-312.8" font-family="Times,serif" font-size="14.00" fill="white">instanceAccess</text>
<text text-anchor="start" x="564.631" y="-290.8" font-family="Times,serif" font-size="14.00">object : instanceHash</text>
<text text-anchor="start" x="545.976" y="-268.8" font-family="Times,serif" font-size="14.00">grant : instanceAccessGrant</text>
<polygon fill="none" stroke="blue" points="540.5,-261 540.5,-329 707.5,-329 707.5,-261 540.5,-261"/>
</g>
<!-- accessIndex&#45;&gt;instanceAccess -->
<g id="edge14" class="edge"><title>accessIndex:from&#45;&gt;instanceAccess</title>
<path fill="none" stroke="black" d="M684,-440C710.67,-440 691.25,-405.362 683,-380 678.608,-366.499 671.237,-353.267 663.165,-341.443"/>
<polygon fill="black" stroke="black" points="665.86,-339.196 657.196,-333.098 660.167,-343.268 665.86,-339.196"/>
</g>
<!-- instanceStoryIndex&#45;&gt;instanceStory -->
<g id="edge12" class="edge"><title>instanceStoryIndex:to&#45;&gt;instanceStory</title>
<path fill="none" stroke="black" d="M718,-418C683.632,-418 708.195,-383.467 738.711,-351.147"/>
<polygon fill="black" stroke="black" points="741.303,-353.501 745.714,-343.867 736.259,-348.648 741.303,-353.501"/>
</g>
<!-- instanceAccess&#45;&gt;instance -->
<g id="edge15" class="edge"><title>instanceAccess:object&#45;&gt;instance</title>
<path fill="none" stroke="black" d="M708,-295C746.624,-295 716.924,-254.133 682.779,-217.706"/>
<polygon fill="black" stroke="black" points="684.882,-214.839 675.448,-210.016 679.815,-219.669 684.882,-214.839"/>
</g>
<!-- instanceAccess&#45;&gt;instanceAccessGrant -->
<g id="edge17" class="edge"><title>instanceAccess:grant&#45;&gt;instanceAccessGrant</title>
<path fill="none" stroke="black" d="M541,-273C526.578,-273 532.721,-256.653 523,-246 505.752,-227.098 484.071,-208.898 464.974,-194.3"/>
<polygon fill="black" stroke="black" points="467.063,-191.491 456.969,-188.273 462.853,-197.084 467.063,-191.491"/>
</g>
<!-- personIndex -->
<g id="node15" class="node"><title>personIndex</title>
<polygon fill="red" stroke="none" points="727,-183 727,-205 889,-205 889,-183 727,-183"/>
<text text-anchor="start" x="773.4" y="-189.8" font-family="Times,serif" font-size="14.00" fill="white">personIndex</text>
<text text-anchor="start" x="769.893" y="-167.8" font-family="Times,serif" font-size="14.00">from : Person</text>
<text text-anchor="start" x="746.576" y="-145.8" font-family="Times,serif" font-size="14.00">to : parentObjectHash</text>
<text text-anchor="start" x="730.638" y="-123.8" font-family="Times,serif" font-size="14.00">IndexItem : IndexItemHash</text>
<polygon fill="none" stroke="red" points="726,-116 726,-206 890,-206 890,-116 726,-116"/>
</g>
<!-- personIndex&#45;&gt;instanceOwner -->
<g id="edge16" class="edge"><title>personIndex:from&#45;&gt;instanceOwner</title>
<path fill="none" stroke="black" d="M726,-172C698.159,-172 726.857,-132.482 708,-112 676.375,-77.651 626.59,-59.2418 586.482,-49.5062"/>
<polygon fill="black" stroke="black" points="587.041,-46.0434 576.511,-47.2135 585.472,-52.8654 587.041,-46.0434"/>
</g>
</g>
</svg>
