<?xml version="1.0" encoding="UTF-8" standalone="no"?>
<!DOCTYPE svg PUBLIC "-//W3C//DTD SVG 1.1//EN"
 "http://www.w3.org/Graphics/SVG/1.1/DTD/svg11.dtd">
<!-- Generated by graphviz version 2.38.0 (20140413.2041)
 -->
<!-- Title: one Pages: 1 -->
<svg width="324pt" height="404pt"
     viewBox="0.00 0.00 324.09 404.00" xmlns="http://www.w3.org/2000/svg">
<g id="graph0" class="graph" transform="scale(1 1) rotate(0) translate(4 400)">
<title>one</title>
<polygon fill="white" stroke="none" points="-4,4 -4,-400 320.088,-400 320.088,4 -4,4"/>
<!-- wantedObjectId -->
<g id="node1" class="node"><title>wantedObjectId</title>
<ellipse fill="none" stroke="black" cx="66.5832" cy="-378" rx="66.6666" ry="18"/>
<text text-anchor="middle" x="66.5832" y="-373.8" font-family="Times,serif" font-size="14.00">wantedObjectId</text>
</g>
<!-- look up contextHash in contextIndex -->
<g id="node3" class="node"><title>look up contextHash in contextIndex</title>
<polygon fill="none" stroke="black" points="260.925,-324 38.2414,-324 38.2414,-288 260.925,-288 260.925,-324"/>
<text text-anchor="middle" x="149.583" y="-301.8" font-family="Times,serif" font-size="14.00">look up contextHash in contextIndex</text>
</g>
<!-- wantedObjectId&#45;&gt;look up contextHash in contextIndex -->
<g id="edge1" class="edge"><title>wantedObjectId&#45;&gt;look up contextHash in contextIndex</title>
<path fill="none" stroke="black" d="M85.8337,-360.765C96.4171,-351.839 109.741,-340.601 121.469,-330.711"/>
<polygon fill="black" stroke="black" points="123.891,-333.247 129.279,-324.124 119.378,-327.895 123.891,-333.247"/>
</g>
<!-- contextIndex -->
<g id="node2" class="node"><title>contextIndex</title>
<polygon fill="red" stroke="red" points="316.093,-396 184.838,-396 151.073,-360 282.328,-360 316.093,-396"/>
<text text-anchor="middle" x="233.583" y="-373.8" font-family="Times,serif" font-size="14.00" fill="white">contextIndex</text>
</g>
<!-- contextIndex&#45;&gt;look up contextHash in contextIndex -->
<g id="edge2" class="edge"><title>contextIndex&#45;&gt;look up contextHash in contextIndex</title>
<path fill="none" stroke="black" d="M212.819,-359.697C202.342,-350.965 189.472,-340.24 178.084,-330.75"/>
<polygon fill="black" stroke="black" points="180.031,-327.817 170.108,-324.104 175.55,-333.195 180.031,-327.817"/>
</g>
<!-- context -->
<g id="node4" class="node"><title>context</title>
<polygon fill="red" stroke="red" points="202.549,-252 118.293,-252 96.6178,-216 180.874,-216 202.549,-252"/>
<text text-anchor="middle" x="149.583" y="-229.8" font-family="Times,serif" font-size="14.00" fill="white">context</text>
</g>
<!-- look up contextHash in contextIndex&#45;&gt;context -->
<g id="edge3" class="edge"><title>look up contextHash in contextIndex&#45;&gt;context</title>
<path fill="none" stroke="black" d="M149.583,-287.697C149.583,-279.983 149.583,-270.712 149.583,-262.112"/>
<polygon fill="black" stroke="black" points="153.083,-262.104 149.583,-252.104 146.083,-262.104 153.083,-262.104"/>
</g>
<!-- storyIndex -->
<g id="node5" class="node"><title>storyIndex</title>
<polygon fill="red" stroke="red" points="219.63,-180 108.201,-180 79.5363,-144 190.965,-144 219.63,-180"/>
<text text-anchor="middle" x="149.583" y="-157.8" font-family="Times,serif" font-size="14.00" fill="white">storyIndex</text>
</g>
<!-- context&#45;&gt;storyIndex -->
<g id="edge4" class="edge"><title>context&#45;&gt;storyIndex</title>
<path fill="none" stroke="black" d="M149.583,-215.697C149.583,-207.983 149.583,-198.712 149.583,-190.112"/>
<polygon fill="black" stroke="black" points="153.083,-190.104 149.583,-180.104 146.083,-190.104 153.083,-190.104"/>
</g>
<!-- hashLookup -->
<g id="node6" class="node"><title>hashLookup</title>
<polygon fill="none" stroke="black" points="284.763,-108 14.4034,-108 14.4034,-72 284.763,-72 284.763,-108"/>
<text text-anchor="middle" x="149.583" y="-85.8" font-family="Times,serif" font-size="14.00">find story with most recent date in storyIndex</text>
</g>
<!-- storyIndex&#45;&gt;hashLookup -->
<g id="edge5" class="edge"><title>storyIndex&#45;&gt;hashLookup</title>
<path fill="none" stroke="black" d="M149.583,-143.697C149.583,-135.983 149.583,-126.712 149.583,-118.112"/>
<polygon fill="black" stroke="black" points="153.083,-118.104 149.583,-108.104 146.083,-118.104 153.083,-118.104"/>
</g>
<!-- objectHash -->
<g id="node7" class="node"><title>objectHash</title>
<ellipse fill="none" stroke="black" cx="149.583" cy="-18" rx="49.7792" ry="18"/>
<text text-anchor="middle" x="149.583" y="-13.8" font-family="Times,serif" font-size="14.00">objectHash</text>
</g>
<!-- hashLookup&#45;&gt;objectHash -->
<g id="edge6" class="edge"><title>hashLookup&#45;&gt;objectHash</title>
<path fill="none" stroke="black" d="M149.583,-71.6966C149.583,-63.9827 149.583,-54.7125 149.583,-46.1124"/>
<polygon fill="black" stroke="black" points="153.083,-46.1043 149.583,-36.1043 146.083,-46.1044 153.083,-46.1043"/>
</g>
</g>
</svg>
