<?xml version="1.0" encoding="UTF-8" standalone="no"?>
<!DOCTYPE svg PUBLIC "-//W3C//DTD SVG 1.1//EN"
 "http://www.w3.org/Graphics/SVG/1.1/DTD/svg11.dtd">
<!-- Generated by graphviz version 2.38.0 (20140413.2041)
 -->
<!-- Title: one Pages: 1 -->
<svg width="510pt" height="787pt"
     viewBox="0.00 0.00 509.80 787.00" xmlns="http://www.w3.org/2000/svg">
<g id="graph0" class="graph" transform="scale(1 1) rotate(0) translate(4 783)">
<title>one</title>
<polygon fill="white" stroke="none" points="-4,4 -4,-783 505.797,-783 505.797,4 -4,4"/>
<!-- Code -->
<g id="node1" class="node"><title>Code</title>
<ellipse fill="none" stroke="black" cx="201.603" cy="-761" rx="28.5497" ry="18"/>
<text text-anchor="middle" x="201.603" y="-756.8" font-family="Times,serif" font-size="14.00">Code</text>
</g>
<!-- calculate planHash -->
<g id="node3" class="node"><title>calculate planHash</title>
<polygon fill="none" stroke="black" points="302.106,-706 197.099,-706 197.099,-670 302.106,-670 302.106,-706"/>
<text text-anchor="middle" x="249.603" y="-683.8" font-family="Times,serif" font-size="14.00">calculate planHash</text>
</g>
<!-- Code&#45;&gt;calculate planHash -->
<g id="edge1" class="edge"><title>Code&#45;&gt;calculate planHash</title>
<path fill="none" stroke="black" d="M212.255,-744.243C218.151,-735.522 225.623,-724.47 232.331,-714.547"/>
<polygon fill="black" stroke="black" points="235.27,-716.449 237.972,-706.204 229.471,-712.528 235.27,-716.449"/>
</g>
<!-- Parameters -->
<g id="node2" class="node"><title>Parameters</title>
<ellipse fill="none" stroke="black" cx="297.603" cy="-761" rx="49.286" ry="18"/>
<text text-anchor="middle" x="297.603" y="-756.8" font-family="Times,serif" font-size="14.00">Parameters</text>
</g>
<!-- Parameters&#45;&gt;calculate planHash -->
<g id="edge2" class="edge"><title>Parameters&#45;&gt;calculate planHash</title>
<path fill="none" stroke="black" d="M286.227,-743.174C280.454,-734.634 273.318,-724.079 266.883,-714.561"/>
<polygon fill="black" stroke="black" points="269.73,-712.523 261.23,-706.198 263.931,-716.443 269.73,-712.523"/>
</g>
<!-- planHash -->
<g id="node4" class="node"><title>planHash</title>
<polygon fill="black" stroke="black" points="297.489,-633 221.312,-633 201.716,-597 277.893,-597 297.489,-633"/>
<text text-anchor="middle" x="249.603" y="-610.8" font-family="Times,serif" font-size="14.00" fill="white">planHash</text>
</g>
<!-- calculate planHash&#45;&gt;planHash -->
<g id="edge3" class="edge"><title>calculate planHash&#45;&gt;planHash</title>
<path fill="none" stroke="black" d="M249.603,-669.813C249.603,-661.789 249.603,-652.047 249.603,-643.069"/>
<polygon fill="black" stroke="black" points="253.103,-643.029 249.603,-633.029 246.103,-643.029 253.103,-643.029"/>
</g>
<!-- lookup planHash in Plan&#45;Story&#45;Index -->
<g id="node5" class="node"><title>lookup planHash in Plan&#45;Story&#45;Index</title>
<polygon fill="none" stroke="black" points="354.076,-560 145.129,-560 145.129,-524 354.076,-524 354.076,-560"/>
<text text-anchor="middle" x="249.603" y="-537.8" font-family="Times,serif" font-size="14.00">lookup planHash in Plan&#45;Story&#45;Index</text>
</g>
<!-- planHash&#45;&gt;lookup planHash in Plan&#45;Story&#45;Index -->
<g id="edge4" class="edge"><title>planHash&#45;&gt;lookup planHash in Plan&#45;Story&#45;Index</title>
<path fill="none" stroke="black" d="M249.603,-596.813C249.603,-588.789 249.603,-579.047 249.603,-570.069"/>
<polygon fill="black" stroke="black" points="253.103,-570.029 249.603,-560.029 246.103,-570.029 253.103,-570.029"/>
</g>
<!-- is there already a plan? -->
<g id="node6" class="node"><title>is there already a plan?</title>
<polygon fill="none" stroke="black" points="249.603,-487 119.963,-469 249.603,-451 379.242,-469 249.603,-487"/>
<text text-anchor="middle" x="249.603" y="-464.8" font-family="Times,serif" font-size="14.00">is there already a plan?</text>
</g>
<!-- lookup planHash in Plan&#45;Story&#45;Index&#45;&gt;is there already a plan? -->
<g id="edge5" class="edge"><title>lookup planHash in Plan&#45;Story&#45;Index&#45;&gt;is there already a plan?</title>
<path fill="none" stroke="black" d="M249.603,-523.813C249.603,-515.789 249.603,-506.047 249.603,-497.069"/>
<polygon fill="black" stroke="black" points="253.103,-497.029 249.603,-487.029 246.103,-497.029 253.103,-497.029"/>
</g>
<!-- lookup story -->
<g id="node7" class="node"><title>lookup story</title>
<polygon fill="none" stroke="black" points="501.993,-487 415.212,-487 415.212,-451 501.993,-451 501.993,-487"/>
<text text-anchor="middle" x="458.603" y="-464.8" font-family="Times,serif" font-size="14.00">lookup story</text>
</g>
<!-- is there already a plan?&#45;&gt;lookup story -->
<g id="edge6" class="edge"><title>is there already a plan?&#45;&gt;lookup story</title>
<path fill="none" stroke="black" d="M379.291,-469C388.306,-469 397.056,-469 405.249,-469"/>
<polygon fill="black" stroke="black" points="405.307,-472.5 415.307,-469 405.306,-465.5 405.307,-472.5"/>
<text text-anchor="middle" x="397.29" y="-474.8" font-family="Times,serif" font-size="14.00">yes</text>
</g>
<!-- create new Plan object -->
<g id="node8" class="node"><title>create new Plan object</title>
<polygon fill="none" stroke="black" points="320.931,-401 178.274,-401 178.274,-365 320.931,-365 320.931,-401"/>
<text text-anchor="middle" x="249.603" y="-378.8" font-family="Times,serif" font-size="14.00">create new Plan object</text>
</g>
<!-- is there already a plan?&#45;&gt;create new Plan object -->
<g id="edge7" class="edge"><title>is there already a plan?&#45;&gt;create new Plan object</title>
<path fill="none" stroke="black" d="M249.603,-450.595C249.603,-439.257 249.603,-424.227 249.603,-411.315"/>
<polygon fill="black" stroke="black" points="253.103,-411.095 249.603,-401.095 246.103,-411.095 253.103,-411.095"/>
<text text-anchor="middle" x="256.603" y="-421.8" font-family="Times,serif" font-size="14.00">no</text>
</g>
<!-- story -->
<g id="node11" class="node"><title>story</title>
<polygon fill="green" stroke="green" points="499.106,-401 434.674,-401 418.099,-365 482.531,-365 499.106,-401"/>
<text text-anchor="middle" x="458.603" y="-378.8" font-family="Times,serif" font-size="14.00">story</text>
</g>
<!-- lookup story&#45;&gt;story -->
<g id="edge10" class="edge"><title>lookup story&#45;&gt;story</title>
<path fill="none" stroke="black" d="M458.603,-450.595C458.603,-439.257 458.603,-424.227 458.603,-411.315"/>
<polygon fill="black" stroke="black" points="462.103,-411.095 458.603,-401.095 455.103,-411.095 462.103,-411.095"/>
</g>
<!-- new plan object -->
<g id="node9" class="node"><title>new plan object</title>
<polygon fill="none" stroke="black" points="346.419,-328 192.406,-328 152.786,-292 306.8,-292 346.419,-328"/>
<text text-anchor="middle" x="249.603" y="-305.8" font-family="Times,serif" font-size="14.00">new plan object</text>
</g>
<!-- create new Plan object&#45;&gt;new plan object -->
<g id="edge8" class="edge"><title>create new Plan object&#45;&gt;new plan object</title>
<path fill="none" stroke="black" d="M249.603,-364.813C249.603,-356.789 249.603,-347.047 249.603,-338.069"/>
<polygon fill="black" stroke="black" points="253.103,-338.029 249.603,-328.029 246.103,-338.029 253.103,-338.029"/>
</g>
<!-- eval plan.code with plan.parameters -->
<g id="node10" class="node"><title>eval plan.code with plan.parameters</title>
<polygon fill="none" stroke="black" points="358.352,-255 140.853,-255 140.853,-219 358.352,-219 358.352,-255"/>
<text text-anchor="middle" x="249.603" y="-232.8" font-family="Times,serif" font-size="14.00">eval plan.code with plan.parameters</text>
</g>
<!-- new plan object&#45;&gt;eval plan.code with plan.parameters -->
<g id="edge9" class="edge"><title>new plan object&#45;&gt;eval plan.code with plan.parameters</title>
<path fill="none" stroke="black" d="M249.603,-291.813C249.603,-283.789 249.603,-274.047 249.603,-265.069"/>
<polygon fill="black" stroke="black" points="253.103,-265.029 249.603,-255.029 246.103,-265.029 253.103,-265.029"/>
</g>
<!-- create Story object containing (plan.)code, (plan.)parameters, and planResult as object -->
<g id="node13" class="node"><title>create Story object containing (plan.)code, (plan.)parameters, and planResult as object</title>
<polygon fill="none" stroke="black" points="499.308,-182 -0.102581,-182 -0.102581,-146 499.308,-146 499.308,-182"/>
<text text-anchor="middle" x="249.603" y="-159.8" font-family="Times,serif" font-size="14.00">create Story object containing (plan.)code, (plan.)parameters, and planResult as object</text>
</g>
<!-- eval plan.code with plan.parameters&#45;&gt;create Story object containing (plan.)code, (plan.)parameters, and planResult as object -->
<g id="edge12" class="edge"><title>eval plan.code with plan.parameters&#45;&gt;create Story object containing (plan.)code, (plan.)parameters, and planResult as object</title>
<path fill="none" stroke="black" d="M249.603,-218.813C249.603,-210.789 249.603,-201.047 249.603,-192.069"/>
<polygon fill="black" stroke="black" points="253.103,-192.029 249.603,-182.029 246.103,-192.029 253.103,-192.029"/>
</g>
<!-- object -->
<g id="node12" class="node"><title>object</title>
<ellipse fill="none" stroke="black" cx="458.603" cy="-310" rx="31.9306" ry="18"/>
<text text-anchor="middle" x="458.603" y="-305.8" font-family="Times,serif" font-size="14.00">object</text>
</g>
<!-- story&#45;&gt;object -->
<g id="edge11" class="edge"><title>story&#45;&gt;object</title>
<path fill="none" stroke="black" d="M458.603,-364.813C458.603,-356.789 458.603,-347.047 458.603,-338.069"/>
<polygon fill="black" stroke="black" points="462.103,-338.029 458.603,-328.029 455.103,-338.029 462.103,-338.029"/>
</g>
<!-- update Indexes -->
<g id="node14" class="node"><title>update Indexes</title>
<polygon fill="none" stroke="black" points="299.959,-109 199.246,-109 199.246,-73 299.959,-73 299.959,-109"/>
<text text-anchor="middle" x="249.603" y="-86.8" font-family="Times,serif" font-size="14.00">update Indexes</text>
</g>
<!-- create Story object containing (plan.)code, (plan.)parameters, and planResult as object&#45;&gt;update Indexes -->
<g id="edge13" class="edge"><title>create Story object containing (plan.)code, (plan.)parameters, and planResult as object&#45;&gt;update Indexes</title>
<path fill="none" stroke="black" d="M249.603,-145.813C249.603,-137.789 249.603,-128.047 249.603,-119.069"/>
<polygon fill="black" stroke="black" points="253.103,-119.029 249.603,-109.029 246.103,-119.029 253.103,-119.029"/>
</g>
<!-- (new) object -->
<g id="node15" class="node"><title>(new) object</title>
<ellipse fill="none" stroke="black" cx="249.603" cy="-18" rx="54.5974" ry="18"/>
<text text-anchor="middle" x="249.603" y="-13.8" font-family="Times,serif" font-size="14.00">(new) object</text>
</g>
<!-- update Indexes&#45;&gt;(new) object -->
<g id="edge14" class="edge"><title>update Indexes&#45;&gt;(new) object</title>
<path fill="none" stroke="black" d="M249.603,-72.8129C249.603,-64.7895 249.603,-55.0475 249.603,-46.0691"/>
<polygon fill="black" stroke="black" points="253.103,-46.0288 249.603,-36.0288 246.103,-46.0289 253.103,-46.0288"/>
</g>
</g>
</svg>
