<?xml version="1.0" encoding="UTF-8" standalone="no"?>
<!DOCTYPE svg PUBLIC "-//W3C//DTD SVG 1.1//EN"
 "http://www.w3.org/Graphics/SVG/1.1/DTD/svg11.dtd">
<!-- Generated by graphviz version 2.38.0 (20140413.2041)
 -->
<!-- Title: one Pages: 1 -->
<svg width="653pt" height="620pt"
     viewBox="0.00 0.00 652.89 620.00" xmlns="http://www.w3.org/2000/svg">
<g id="graph0" class="graph" transform="scale(1 1) rotate(0) translate(4 616)">
<title>one</title>
<polygon fill="white" stroke="none" points="-4,4 -4,-616 648.886,-616 648.886,4 -4,4"/>
<!-- someObject -->
<g id="node1" class="node"><title>someObject</title>
<ellipse fill="none" stroke="black" cx="195.735" cy="-594" rx="52.1934" ry="18"/>
<text text-anchor="middle" x="195.735" y="-589.8" font-family="Times,serif" font-size="14.00">someObject</text>
</g>
<!-- calculate objectId from someObject -->
<g id="node2" class="node"><title>calculate objectId from someObject</title>
<polygon fill="none" stroke="black" points="303.926,-540 87.5448,-540 87.5448,-504 303.926,-504 303.926,-540"/>
<text text-anchor="middle" x="195.735" y="-517.8" font-family="Times,serif" font-size="14.00">calculate objectId from someObject</text>
</g>
<!-- someObject&#45;&gt;calculate objectId from someObject -->
<g id="edge1" class="edge"><title>someObject&#45;&gt;calculate objectId from someObject</title>
<path fill="none" stroke="black" d="M195.735,-575.697C195.735,-567.983 195.735,-558.712 195.735,-550.112"/>
<polygon fill="black" stroke="black" points="199.235,-550.104 195.735,-540.104 192.235,-550.104 199.235,-550.104"/>
</g>
<!-- someObjectId -->
<g id="node3" class="node"><title>someObjectId</title>
<polygon fill="black" stroke="black" points="283.337,-468 143.982,-468 108.134,-432 247.488,-432 283.337,-468"/>
<text text-anchor="middle" x="195.735" y="-445.8" font-family="Times,serif" font-size="14.00" fill="white">someObjectId</text>
</g>
<!-- calculate objectId from someObject&#45;&gt;someObjectId -->
<g id="edge2" class="edge"><title>calculate objectId from someObject&#45;&gt;someObjectId</title>
<path fill="none" stroke="black" d="M195.735,-503.697C195.735,-495.983 195.735,-486.712 195.735,-478.112"/>
<polygon fill="black" stroke="black" points="199.235,-478.104 195.735,-468.104 192.235,-478.104 199.235,-478.104"/>
</g>
<!-- calculate objectAccessIndex from someObjectId -->
<g id="node4" class="node"><title>calculate objectAccessIndex from someObjectId</title>
<polygon fill="none" stroke="black" points="339.45,-396 52.0204,-396 52.0204,-360 339.45,-360 339.45,-396"/>
<text text-anchor="middle" x="195.735" y="-373.8" font-family="Times,serif" font-size="14.00">calculate objectAccessIndex from someObjectId</text>
</g>
<!-- someObjectId&#45;&gt;calculate objectAccessIndex from someObjectId -->
<g id="edge3" class="edge"><title>someObjectId&#45;&gt;calculate objectAccessIndex from someObjectId</title>
<path fill="none" stroke="black" d="M195.735,-431.697C195.735,-423.983 195.735,-414.712 195.735,-406.112"/>
<polygon fill="black" stroke="black" points="199.235,-406.104 195.735,-396.104 192.235,-406.104 199.235,-406.104"/>
</g>
<!-- objectAccessIndex -->
<g id="node5" class="node"><title>objectAccessIndex</title>
<polygon fill="red" stroke="red" points="308.721,-324 128.986,-324 82.7498,-288 262.485,-288 308.721,-324"/>
<text text-anchor="middle" x="195.735" y="-301.8" font-family="Times,serif" font-size="14.00" fill="white">objectAccessIndex</text>
</g>
<!-- calculate objectAccessIndex from someObjectId&#45;&gt;objectAccessIndex -->
<g id="edge4" class="edge"><title>calculate objectAccessIndex from someObjectId&#45;&gt;objectAccessIndex</title>
<path fill="none" stroke="black" d="M195.735,-359.697C195.735,-351.983 195.735,-342.712 195.735,-334.112"/>
<polygon fill="black" stroke="black" points="199.235,-334.104 195.735,-324.104 192.235,-334.104 199.235,-334.104"/>
</g>
<!-- collect access grants from access objects referenced in accessIndex -->
<g id="node6" class="node"><title>collect access grants from access objects referenced in accessIndex</title>
<polygon fill="none" stroke="black" points="391.706,-252 -0.235635,-252 -0.235635,-216 391.706,-216 391.706,-252"/>
<text text-anchor="middle" x="195.735" y="-229.8" font-family="Times,serif" font-size="14.00">collect access grants from access objects referenced in accessIndex</text>
</g>
<!-- objectAccessIndex&#45;&gt;collect access grants from access objects referenced in accessIndex -->
<g id="edge5" class="edge"><title>objectAccessIndex&#45;&gt;collect access grants from access objects referenced in accessIndex</title>
<path fill="none" stroke="black" d="M195.735,-287.697C195.735,-279.983 195.735,-270.712 195.735,-262.112"/>
<polygon fill="black" stroke="black" points="199.235,-262.104 195.735,-252.104 192.235,-262.104 199.235,-262.104"/>
</g>
<!-- access grants[] -->
<g id="node7" class="node"><title>access grants[]</title>
<polygon fill="blue" stroke="blue" points="287.226,-180 141.685,-180 104.245,-144 249.786,-144 287.226,-180"/>
<text text-anchor="middle" x="195.735" y="-157.8" font-family="Times,serif" font-size="14.00" fill="white">access grants[]</text>
</g>
<!-- collect access grants from access objects referenced in accessIndex&#45;&gt;access grants[] -->
<g id="edge6" class="edge"><title>collect access grants from access objects referenced in accessIndex&#45;&gt;access grants[]</title>
<path fill="none" stroke="black" d="M195.735,-215.697C195.735,-207.983 195.735,-198.712 195.735,-190.112"/>
<polygon fill="black" stroke="black" points="199.235,-190.104 195.735,-180.104 192.235,-190.104 199.235,-190.104"/>
</g>
<!-- collect list of person objects from access grants[] -->
<g id="node8" class="node"><title>collect list of person objects from access grants[]</title>
<polygon fill="none" stroke="black" points="340.809,-108 50.6621,-108 50.6621,-72 340.809,-72 340.809,-108"/>
<text text-anchor="middle" x="195.735" y="-85.8" font-family="Times,serif" font-size="14.00">collect list of person objects from access grants[]</text>
</g>
<!-- access grants[]&#45;&gt;collect list of person objects from access grants[] -->
<g id="edge7" class="edge"><title>access grants[]&#45;&gt;collect list of person objects from access grants[]</title>
<path fill="none" stroke="black" d="M195.735,-143.697C195.735,-135.983 195.735,-126.712 195.735,-118.112"/>
<polygon fill="black" stroke="black" points="199.235,-118.104 195.735,-108.104 192.235,-118.104 199.235,-118.104"/>
</g>
<!-- list of person objects we propagate someObject to -->
<g id="node9" class="node"><title>list of person objects we propagate someObject to</title>
<ellipse fill="none" stroke="black" cx="195.735" cy="-18" rx="186.865" ry="18"/>
<text text-anchor="middle" x="195.735" y="-13.8" font-family="Times,serif" font-size="14.00">list of person objects we propagate someObject to</text>
</g>
<!-- collect list of person objects from access grants[]&#45;&gt;list of person objects we propagate someObject to -->
<g id="edge8" class="edge"><title>collect list of person objects from access grants[]&#45;&gt;list of person objects we propagate someObject to</title>
<path fill="none" stroke="black" d="M195.735,-71.6966C195.735,-63.9827 195.735,-54.7125 195.735,-46.1124"/>
<polygon fill="black" stroke="black" points="199.235,-46.1043 195.735,-36.1043 192.235,-46.1044 199.235,-46.1043"/>
</g>
<!-- somePersonObject -->
<g id="node10" class="node"><title>somePersonObject</title>
<ellipse fill="none" stroke="black" cx="517.735" cy="-594" rx="76.3398" ry="18"/>
<text text-anchor="middle" x="517.735" y="-589.8" font-family="Times,serif" font-size="14.00">somePersonObject</text>
</g>
<!-- calculate objectId from somePersonObject -->
<g id="node11" class="node"><title>calculate objectId from somePersonObject</title>
<polygon fill="none" stroke="black" points="645.036,-540 390.434,-540 390.434,-504 645.036,-504 645.036,-540"/>
<text text-anchor="middle" x="517.735" y="-517.8" font-family="Times,serif" font-size="14.00">calculate objectId from somePersonObject</text>
</g>
<!-- somePersonObject&#45;&gt;calculate objectId from somePersonObject -->
<g id="edge9" class="edge"><title>somePersonObject&#45;&gt;calculate objectId from somePersonObject</title>
<path fill="none" stroke="black" d="M517.735,-575.697C517.735,-567.983 517.735,-558.712 517.735,-550.112"/>
<polygon fill="black" stroke="black" points="521.235,-550.104 517.735,-540.104 514.235,-550.104 521.235,-550.104"/>
</g>
<!-- somePersonObjectId -->
<g id="node12" class="node"><title>somePersonObjectId</title>
<polygon fill="black" stroke="black" points="640.43,-468 445.251,-468 395.041,-432 590.22,-432 640.43,-468"/>
<text text-anchor="middle" x="517.735" y="-445.8" font-family="Times,serif" font-size="14.00" fill="white">somePersonObjectId</text>
</g>
<!-- calculate objectId from somePersonObject&#45;&gt;somePersonObjectId -->
<g id="edge10" class="edge"><title>calculate objectId from somePersonObject&#45;&gt;somePersonObjectId</title>
<path fill="none" stroke="black" d="M517.735,-503.697C517.735,-495.983 517.735,-486.712 517.735,-478.112"/>
<polygon fill="black" stroke="black" points="521.235,-478.104 517.735,-468.104 514.235,-478.104 521.235,-478.104"/>
</g>
<!-- grantIndex -->
<g id="node13" class="node"><title>grantIndex</title>
<polygon fill="red" stroke="red" points="588.7,-396 475.811,-396 446.771,-360 559.659,-360 588.7,-396"/>
<text text-anchor="middle" x="517.735" y="-373.8" font-family="Times,serif" font-size="14.00" fill="white">grantIndex</text>
</g>
<!-- somePersonObjectId&#45;&gt;grantIndex -->
<g id="edge11" class="edge"><title>somePersonObjectId&#45;&gt;grantIndex</title>
<path fill="none" stroke="black" d="M517.735,-431.697C517.735,-423.983 517.735,-414.712 517.735,-406.112"/>
<polygon fill="black" stroke="black" points="521.235,-406.104 517.735,-396.104 514.235,-406.104 521.235,-406.104"/>
</g>
<!-- accessIndex -->
<g id="node16" class="node"><title>accessIndex</title>
<polygon fill="red" stroke="red" points="595.141,-324 472.006,-324 440.33,-288 563.465,-288 595.141,-324"/>
<text text-anchor="middle" x="517.735" y="-301.8" font-family="Times,serif" font-size="14.00" fill="white">accessIndex</text>
</g>
<!-- grantIndex&#45;&gt;accessIndex -->
<g id="edge12" class="edge"><title>grantIndex&#45;&gt;accessIndex</title>
<path fill="none" stroke="black" d="M517.735,-359.697C517.735,-351.983 517.735,-342.712 517.735,-334.112"/>
<polygon fill="black" stroke="black" points="521.235,-334.104 517.735,-324.104 514.235,-334.104 521.235,-334.104"/>
</g>
<!-- collect objects from Access Objects -->
<g id="node14" class="node"><title>collect objects from Access Objects</title>
<polygon fill="none" stroke="black" points="625.564,-252 409.907,-252 409.907,-216 625.564,-216 625.564,-252"/>
<text text-anchor="middle" x="517.735" y="-229.8" font-family="Times,serif" font-size="14.00">collect objects from Access Objects</text>
</g>
<!-- accessibleObjects[] -->
<g id="node15" class="node"><title>accessibleObjects[]</title>
<ellipse fill="blue" stroke="blue" cx="517.735" cy="-162" rx="78.7108" ry="18"/>
<text text-anchor="middle" x="517.735" y="-157.8" font-family="Times,serif" font-size="14.00" fill="white">accessibleObjects[]</text>
</g>
<!-- collect objects from Access Objects&#45;&gt;accessibleObjects[] -->
<g id="edge14" class="edge"><title>collect objects from Access Objects&#45;&gt;accessibleObjects[]</title>
<path fill="none" stroke="black" d="M517.735,-215.697C517.735,-207.983 517.735,-198.712 517.735,-190.112"/>
<polygon fill="black" stroke="black" points="521.235,-190.104 517.735,-180.104 514.235,-190.104 521.235,-190.104"/>
</g>
<!-- accessIndex&#45;&gt;collect objects from Access Objects -->
<g id="edge13" class="edge"><title>accessIndex&#45;&gt;collect objects from Access Objects</title>
<path fill="none" stroke="black" d="M517.735,-287.697C517.735,-279.983 517.735,-270.712 517.735,-262.112"/>
<polygon fill="black" stroke="black" points="521.235,-262.104 517.735,-252.104 514.235,-262.104 521.235,-262.104"/>
</g>
</g>
</svg>
